<svg version="1.1" id="Layer_1" xmlns="http://www.w3.org/2000/svg" xmlns:xlink="http://www.w3.org/1999/xlink" x="0px" y="0px"
	 width="100%" viewBox="0 0 1080 1080" enable-background="new 0 0 1080 1080" xml:space="preserve">
<path fill="#000000" opacity="1.000000" stroke="none" 
	d="
M1074.062988,1081.000000 
	C716.052551,1081.000000 358.554596,1081.000000 1.028305,1081.000000 
	C1.028305,721.020935 1.028305,361.041809 1.028305,1.031363 
	C360.977051,1.031363 720.954102,1.031363 1080.965576,1.031363 
	C1080.965576,360.975006 1080.965576,720.950012 1080.965576,1081.000000 
	C1078.858643,1081.000000 1076.717041,1081.000000 1074.062988,1081.000000 
M954.025085,567.077515 
	C946.666992,567.114441 939.308899,567.151367 931.024719,567.085510 
	C921.735352,567.085510 912.446045,567.085510 903.207886,567.085510 
	C903.035400,564.525452 902.906982,562.620361 902.778625,560.715271 
	C902.603027,560.726624 902.427490,560.737976 902.251892,560.749268 
	C902.251892,563.123169 902.251892,565.497070 902.251892,567.811096 
	C912.327881,567.811096 922.139648,567.811096 932.878845,567.996277 
	C940.236511,567.941650 947.594177,567.886963 955.881653,568.002808 
	C964.434143,568.002808 972.986633,568.002808 981.370911,568.002808 
	C981.259399,565.484375 981.181946,563.735901 981.104553,561.987427 
	C982.514893,565.997742 980.793640,567.233704 976.874512,567.120850 
	C969.573669,566.910461 962.260498,567.127686 954.025085,567.077515 
z"/>
<path fill="#B1B1B1" opacity="1.000000" stroke="none" 
	d="
M931.951416,567.811096 
	C922.139648,567.811096 912.327881,567.811096 902.251892,567.811096 
	C902.251892,565.497070 902.251892,563.123169 902.251892,560.749268 
	C902.427490,560.737976 902.603027,560.726624 902.778625,560.715271 
	C902.906982,562.620361 903.035400,564.525452 903.207886,567.085510 
	C912.446045,567.085510 921.735352,567.085510 931.480469,567.292603 
	C931.936218,567.499695 931.951416,567.811096 931.951416,567.811096 
z"/>
<path fill="#6D6D6D" opacity="1.000000" stroke="none" 
	d="
M954.952454,567.166931 
	C962.260498,567.127686 969.573669,566.910461 976.874512,567.120850 
	C980.793640,567.233704 982.514893,565.997742 981.104553,561.987427 
	C981.181946,563.735901 981.259399,565.484375 981.370911,568.002808 
	C972.986633,568.002808 964.434143,568.002808 955.417480,567.751221 
	C954.953369,567.499634 954.952454,567.166931 954.952454,567.166931 
z"/>
<path fill="#8D8D8D" opacity="1.000000" stroke="none" 
	d="
M954.488770,567.122192 
	C954.952454,567.166931 954.953369,567.499634 954.952637,567.666016 
	C947.594177,567.886963 940.236511,567.941650 932.415161,567.903687 
	C931.951416,567.811096 931.936218,567.499695 931.943481,567.343994 
	C939.308899,567.151367 946.666992,567.114441 954.488770,567.122192 
z"/>
</svg>