<?xml version="1.0" encoding="UTF-8"?>
<svg version="1.1" xmlns="http://www.w3.org/2000/svg" width="1080" height="1080">
<path d="M0 0 C3.74516916 0.04631835 6.63555214 0.93675563 10.10546875 2.39453125 C13.00653328 3.45874085 15.91897691 4.09198286 18.9375 4.75 C22.65485891 5.56893374 26.20555055 6.42128611 29.75 7.8125 C32.98440938 9.07337145 36.0303555 9.93468608 39.390625 10.72265625 C41.5181392 11.27077537 43.55312918 11.95780827 45.625 12.6875 C49.3540597 13.96916301 53.08858954 14.89418871 56.9375 15.75 C62.25082704 16.93418374 67.313215 18.43170532 72.4375 20.25 C73.571875 20.600625 74.70625 20.95125 75.875 21.3125 C78.4375 22.25 78.4375 22.25 80.4375 24.25 C80.05063261 30.29618459 77.91379194 35.78152197 75.4375 41.25 C74.73258733 43.57206525 74.06537571 45.90593068 73.4375 48.25 C71.5795765 55.1079235 71.5795765 55.1079235 70.4375 56.25 C70.355 57.19875 70.2725 58.1475 70.1875 59.125 C68.8624679 69.05254816 62.86427338 77.82322662 55.9375 84.75 C49.67678762 87.43316245 42.48166608 87.36953587 35.92578125 85.5546875 C31.24571008 83.43305523 28.27155051 80.50107577 25.4375 76.25 C25.4375 74.93 25.4375 73.61 25.4375 72.25 C21.16408086 72.72482435 19.33430572 75.28077413 16.4375 78.25 C11.71322301 81.16497942 6.81141393 80.94042338 1.4375 80.25 C-5.63801476 77.89149508 -11.82572681 73.84054643 -15.7043457 67.3347168 C-16.64807511 65.04211213 -16.8069294 63.42642418 -16.79296875 60.95703125 C-16.79103516 60.16232422 -16.78910156 59.36761719 -16.78710938 58.54882812 C-16.77486328 57.72833984 -16.76261719 56.90785156 -16.75 56.0625 C-16.74935547 55.23041016 -16.74871094 54.39832031 -16.74804688 53.54101562 C-16.70293257 47.39043257 -16.70293257 47.39043257 -15.5625 46.25 C-15.43875 45.074375 -15.315 43.89875 -15.1875 42.6875 C-14.77534234 39.04248071 -13.76549611 35.98784963 -12.3828125 32.578125 C-10.98963076 28.62414253 -10.21858322 24.52308938 -9.3203125 20.43359375 C-8.48974274 16.94434451 -7.38351371 13.63405955 -6.1875 10.2578125 C-5.26296082 7.28773039 -4.94766997 4.33135973 -4.5625 1.25 C-3.5625 0.25 -3.5625 0.25 0 0 Z M4.125 21.3125 C2.15573647 24.74047726 1.90141361 27.33987103 1.4375 31.25 C0.9946427 32.55456157 0.51341005 33.84655814 0 35.125 C-3.01143165 42.75691257 -5.39147357 51.24703433 -2.125 59.125 C-0.86884565 62.04906361 -0.86884565 62.04906361 0.4375 63.25 C9.56736271 64.33138956 9.56736271 64.33138956 17.5625 60.8125 C18.59939165 59.14788621 18.59939165 59.14788621 19.4375 57.25 C19.81132813 56.5384375 20.18515625 55.826875 20.5703125 55.09375 C22.83551831 50.46829478 23.78580209 46.37048354 24.4375 41.25 C24.93151513 39.94784056 25.45412687 38.65628555 26 37.375 C27.73924226 33.03962051 27.964019 28.87729196 27.4375 24.25 C26.25325674 22.83422523 26.25325674 22.83422523 22.875 23.1875 C21.740625 23.208125 20.60625 23.22875 19.4375 23.25 C19.4375 22.59 19.4375 21.93 19.4375 21.25 C11.42812463 18.34847133 11.42812463 18.34847133 4.125 21.3125 Z M41.4375 29.25 C39.06583332 33.57713558 37.79648238 37.47340108 36.875 42.3125 C36.06200941 46.54280698 35.03722913 50.26412029 33.4375 54.25 C32.85554174 58.24057093 33.03717602 61.39216291 34.75 65.0625 C35.306875 65.784375 35.86375 66.50625 36.4375 67.25 C36.829375 67.848125 37.22125 68.44625 37.625 69.0625 C40.68358601 71.06640118 43.95446026 70.7290035 47.4375 70.25 C52.66014298 68.30669098 55.18110888 64.13754615 57.4375 59.25 C58.66030841 55.29292901 59.54666265 51.29217448 60.4375 47.25 C60.82043016 45.93367756 61.21382212 44.62027408 61.625 43.3125 C62.7156685 39.30791113 62.7156685 39.30791113 62.4375 35.25 C58.91245273 32.17979754 54.80116234 31.52393627 50.328125 30.6796875 C48.4375 30.25 48.4375 30.25 47.4375 29.25 C45.43791636 29.20919217 43.43704746 29.20745644 41.4375 29.25 Z " fill="#000000" transform="translate(978.5625,653.75)"/>
<path d="M0 0 C0.6290625 0.17015625 1.258125 0.3403125 1.90625 0.515625 C12.74133583 3.86934204 19.63785308 13.39420536 25.06640625 22.859375 C30.3736501 35.02828558 30.17536441 49.75076861 30.8125 62.8125 C30.87767822 63.95178955 30.94285645 65.0910791 31.01000977 66.26489258 C31.05440186 67.33892334 31.09879395 68.4129541 31.14453125 69.51953125 C31.21184448 70.95969604 31.21184448 70.95969604 31.28051758 72.42895508 C30.94239022 75.52801447 30.21904499 76.82952208 28 79 C25.08153213 79.41307545 22.48536499 79.60105681 19.5625 79.625 C17.92040816 79.67449394 16.27846476 79.72918514 14.63671875 79.7890625 C13.8379834 79.81774414 13.03924805 79.84642578 12.21630859 79.87597656 C9.38563751 80.03437939 6.65851776 80.47017179 3.875 81 C-1.60004736 82.03519803 -7.01468521 82.40142438 -12.57080078 82.65820312 C-16.21453519 82.80913325 -16.21453519 82.80913325 -19.78662109 83.47753906 C-24.73924344 84.64658956 -29.93949043 84.69237898 -35.00927734 85.03979492 C-37.12555399 85.18753868 -39.2403362 85.35045963 -41.35546875 85.51367188 C-42.69785125 85.6077093 -44.04029766 85.70083984 -45.3828125 85.79296875 C-46.60371582 85.8808667 -47.82461914 85.96876465 -49.08251953 86.05932617 C-52 86 -52 86 -54 84 C-54.4591228 81.47932578 -54.8007279 79.04252509 -55.0625 76.5 C-55.1860083 75.36473877 -55.1860083 75.36473877 -55.31201172 74.20654297 C-56.18462616 65.81734868 -56.70150604 57.42765399 -57 49 C-57.03399902 48.17048828 -57.06799805 47.34097656 -57.10302734 46.48632812 C-57.19819312 43.94921813 -57.26027108 41.4133255 -57.3125 38.875 C-57.34230957 38.10559082 -57.37211914 37.33618164 -57.40283203 36.54345703 C-57.45417068 31.53520846 -56.47538282 28.16815918 -53.96166992 23.82861328 C-52.94884314 21.90272534 -52.44668574 20.12241629 -52 18 C-51.34 18 -50.68 18 -50 18 C-49.7834375 17.071875 -49.7834375 17.071875 -49.5625 16.125 C-49 14 -49 14 -48 12 C-47.34 12 -46.68 12 -46 12 C-46 11.34 -46 10.68 -46 10 C-45.34 10 -44.68 10 -44 10 C-44 9.34 -44 8.68 -44 8 C-43.34 8 -42.68 8 -42 8 C-42 7.34 -42 6.68 -42 6 C-40.60635 5.20449608 -39.20996569 4.41378162 -37.8125 3.625 C-36.64654297 2.96371094 -36.64654297 2.96371094 -35.45703125 2.2890625 C-30.51430288 -0.30410183 -26.11265487 -1.44412578 -20.5625 -2.1875 C-19.28503906 -2.36667969 -18.00757813 -2.54585937 -16.69140625 -2.73046875 C-10.74903394 -3.16435625 -5.64812171 -1.75286536 0 0 Z M-37 23 C-38.96296666 25.53446328 -40.57383736 28.13109144 -42 31 C-42.36867188 31.72058594 -42.73734375 32.44117188 -43.1171875 33.18359375 C-44.35987223 37.14808795 -44.29627597 40.86956282 -44.25 45 C-44.24540771 45.83708496 -44.24081543 46.67416992 -44.23608398 47.53662109 C-44.61790942 59.02359305 -44.61790942 59.02359305 -41 69 C-38.86116544 68.77976357 -36.722782 68.55273831 -34.58886719 68.2890625 C-29.6034702 67.73241312 -24.58805196 67.60199755 -19.578125 67.39453125 C-18.36769531 67.33845703 -18.36769531 67.33845703 -17.1328125 67.28125 C-16.40980957 67.25095703 -15.68680664 67.22066406 -14.94189453 67.18945312 C-12.78394246 67.05165658 -12.78394246 67.05165658 -10 66 C-8.27418303 65.89750591 -6.54513663 65.84520692 -4.81640625 65.82421875 C-3.80642578 65.80037109 -2.79644531 65.77652344 -1.75585938 65.75195312 C0.36893764 65.70906731 2.49400095 65.67777163 4.61914062 65.65820312 C5.63041016 65.63048828 6.64167969 65.60277344 7.68359375 65.57421875 C8.60712646 65.55963623 9.53065918 65.54505371 10.48217773 65.5300293 C13.79154642 64.83337077 15.00274174 63.69923451 17 61 C17.39969913 58.73126219 17.39969913 58.73126219 17.0234375 56.33203125 C16.92933594 55.43806641 16.83523437 54.54410156 16.73828125 53.62304688 C16.61839844 52.69556641 16.49851563 51.76808594 16.375 50.8125 C16.22998047 49.4502832 16.22998047 49.4502832 16.08203125 48.06054688 C14.65571135 35.44935134 12.16746475 26.36486642 2 18 C-10.40822892 9.57130267 -26.68030133 13.1443563 -37 23 Z " fill="#000000" transform="translate(105,566)"/>
<path d="M0 0 C0.7321875 0.64839844 1.464375 1.29679687 2.21875 1.96484375 C8.42115828 7.81892837 11.27711195 12.67477334 11.6875 21.375 C11.75324219 22.62023437 11.81898438 23.86546875 11.88671875 25.1484375 C11.94279297 26.55996094 11.94279297 26.55996094 12 28 C16.4931211 28 17.28098353 27.40321453 20.75 24.8125 C24.51252598 22.0614655 28.30047859 19.51704401 32.30859375 17.140625 C34.10524058 15.92902944 35.5190362 14.57607156 37 13 C41.56437964 14.17369762 43.55025477 16.397232 46.05078125 20.19140625 C47.34697015 22.6610995 47.60573838 24.27417729 47 27 C44.28032111 30.22961868 40.84591307 31.80012521 37.15625 33.71875 C35.06364636 34.96218115 33.69838642 36.28310256 32 38 C30.15467902 38.90588484 28.30797655 39.80910565 26.453125 40.6953125 C22.38280198 42.86010213 18.63569366 45.50039791 14.83203125 48.09765625 C7.5338809 53 7.5338809 53 5 53 C5 53.66 5 54.32 5 55 C3.68 55 2.36 55 1 55 C1 55.66 1 56.32 1 57 C-0.50390625 58.11328125 -0.50390625 58.11328125 -2.5625 59.3125 C-5.32125989 60.96387036 -7.973415 62.65599195 -10.5625 64.5625 C-12.86929636 66.24256402 -15.1970339 67.73139876 -17.6875 69.125 C-20.90957378 70.82272018 -20.90957378 70.82272018 -23.125 72.75 C-25.62654579 74.4176972 -27.05541918 74.52851451 -30 74 C-32.58680167 71.41319833 -33.94802255 68.47961774 -35 65 C-34.87625 63.845 -34.7525 62.69 -34.625 61.5 C-34.57980916 58.04391948 -34.57980916 58.04391948 -36.52734375 56.7578125 C-37.93618598 55.97362009 -39.35067761 55.19952359 -40.76953125 54.43359375 C-46.96375962 50.45236466 -51.49340423 42.83569554 -54 36 C-54.58162566 32.6683412 -54.6681598 29.43951451 -54.625 26.0625 C-54.61734619 25.17731689 -54.60969238 24.29213379 -54.60180664 23.38012695 C-54.36509435 16.44875489 -53.04218118 11.95410815 -48 7 C-47.08347656 6.00613281 -47.08347656 6.00613281 -46.1484375 4.9921875 C-43.56393192 2.27570717 -41.13013961 0.08675974 -38 -2 C-37.01 -2 -36.02 -2 -35 -2 C-35 -2.66 -35 -3.32 -35 -4 C-23.494312 -9.22985818 -9.55400942 -8.50674301 0 0 Z M-33 13 C-33 13.66 -33 14.32 -33 15 C-33.66 15 -34.32 15 -35 15 C-35 15.66 -35 16.32 -35 17 C-35.66 17 -36.32 17 -37 17 C-39.3534257 20.70899891 -39.3318354 24.0499068 -39.375 28.375 C-39.40335938 29.66148437 -39.43171875 30.94796875 -39.4609375 32.2734375 C-38.66888447 38.67698491 -34.73429109 42.84306149 -30 47 C-25.90781859 49.32258945 -21.60263475 49.89964239 -17 49 C-13.33633792 47.4157137 -10.21015156 45.35951203 -7 43 C-6.20335937 42.41992188 -5.40671875 41.83984375 -4.5859375 41.2421875 C-1.24838642 38.42354896 0.72033041 36.38920843 1.59765625 32.03125 C1.8243378 24.06782863 0.07677384 19.08043122 -5.3125 13.25 C-9.90803194 8.89482015 -14.38016041 7.48628187 -20.765625 7.59765625 C-25.2278875 8.40117555 -29.10385272 10.76450566 -33 13 Z " fill="#000000" transform="translate(961,291)"/>
<path d="M0 0 C1.02673828 0.67675781 1.02673828 0.67675781 2.07421875 1.3671875 C8.573861 5.97983684 15.58501636 11.93410341 17.46972656 20.01367188 C18.92383542 29.84113538 19.02512887 40.65751387 13 49 C12.4225 49.804375 11.845 50.60875 11.25 51.4375 C6.07213473 57.33451322 1.29848547 61.4900102 -6.6875 62.4375 C-7.780625 62.623125 -8.87375 62.80875 -10 63 C-10.66 63.99 -11.32 64.98 -12 66 C-11.44948975 66.51908936 -10.89897949 67.03817871 -10.33178711 67.57299805 C-7.85148587 69.92874554 -5.39454901 72.30752049 -2.9375 74.6875 C-2.07060547 75.50412109 -1.20371094 76.32074219 -0.31054688 77.16210938 C0.50478516 77.95810547 1.32011719 78.75410156 2.16015625 79.57421875 C2.91949463 80.30213623 3.67883301 81.03005371 4.46118164 81.7800293 C6 84 6 84 5.73999023 86.77661133 C5.49579346 87.51032959 5.25159668 88.24404785 5 89 C3.515 89.495 3.515 89.495 2 90 C2 90.66 2 91.32 2 92 C1.34 92 0.68 92 0 92 C0 92.66 0 93.32 0 94 C-0.66 94 -1.32 94 -2 94 C-2 94.66 -2 95.32 -2 96 C-6.914772 95.58897814 -8.72312198 93.59790786 -11.875 89.9375 C-12.31062256 89.43871338 -12.74624512 88.93992676 -13.19506836 88.42602539 C-14.47331383 86.95928289 -15.73695451 85.47985173 -17 84 C-18.18602578 82.64454197 -19.37333751 81.29020698 -20.5625 79.9375 C-21.11035156 79.30714844 -21.65820312 78.67679687 -22.22265625 78.02734375 C-25.05370434 74.7980823 -27.94025006 71.61911735 -30.8203125 68.43359375 C-32.70174868 66.33299385 -34.54282694 64.20587949 -36.375 62.0625 C-39.24573895 58.75215834 -42.30950694 55.6927566 -45.4375 52.625 C-50.41024329 47.73875395 -54.74612699 42.51463628 -59 37 C-60.64931651 34.98461568 -62.32249124 32.99204165 -64 31 C-61.91056057 27.04106213 -59.83536085 24.374271 -56 22 C-53.375 22.1875 -53.375 22.1875 -51 23 C-50.01 23.33 -49.02 23.66 -48 24 C-47.99742187 23.43152344 -47.99484375 22.86304688 -47.9921875 22.27734375 C-47.66195785 15.68375837 -45.68289036 12.5169145 -41 8 C-40.34 7.29875 -39.68 6.5975 -39 5.875 C-28.74486718 -3.73918702 -12.83149632 -8.55433088 0 0 Z M-32 16.1875 C-36.25656108 22.17328902 -37.76137393 28.2194049 -36.6953125 35.51171875 C-34.98411658 41.63549293 -31.33957002 46.39422615 -26.1875 50.0625 C-20.53323441 53.18097854 -15.4918539 52.69946776 -9.4375 51 C-3.53611212 47.56646524 1.77259575 43.38651824 3.625 36.5625 C4.41109219 30.99274923 3.71300123 26.002357 0.91015625 21.08984375 C-3.13961102 15.74884634 -8.91560772 12.60759669 -15 10 C-21.09902738 10 -27.12566799 12.63329958 -32 16.1875 Z " fill="#000000" transform="translate(268,197)"/>
<path d="M0 0 C0.70125 0.29003906 1.4025 0.58007812 2.125 0.87890625 C9.16278281 4.0645693 13.80439931 8.62643777 17.16650391 15.57861328 C18.7937669 20.30596956 18.61434496 25.11283077 18.5625 30.0625 C18.59827148 31.63741211 18.59827148 31.63741211 18.63476562 33.24414062 C18.62146801 40.28744519 17.50592921 43.62287687 13 49 C13 49.99 13 50.98 13 52 C13.86802246 51.98428955 14.73604492 51.9685791 15.63037109 51.95239258 C18.84698287 51.90130445 22.06338813 51.86366973 25.28027344 51.83520508 C26.67324622 51.82010642 28.06617138 51.79962556 29.45898438 51.77368164 C31.45942885 51.73734878 33.46021827 51.72188808 35.4609375 51.70703125 C37.26763916 51.68346558 37.26763916 51.68346558 39.11083984 51.65942383 C40.0642627 51.77181396 41.01768555 51.8842041 42 52 C44.26166232 55.39249348 44.24515545 56.65201501 44.1875 60.625 C44.18105469 61.60726562 44.17460938 62.58953125 44.16796875 63.6015625 C44 66 44 66 43 67 C40.23061034 67.09517803 37.48622841 67.12554265 34.71655273 67.11352539 C33.41423203 67.11374443 33.41423203 67.11374443 32.08560181 67.1139679 C29.20157414 67.11326846 26.3176102 67.10547463 23.43359375 67.09765625 C21.43962133 67.09579218 19.44564845 67.09436823 17.45167542 67.09336853 C12.19254298 67.08954248 6.93343797 67.07971145 1.67431641 67.06866455 C-3.68782175 67.0584523 -9.04996431 67.05387131 -14.41210938 67.04882812 C-24.94141833 67.03808926 -35.47070689 67.0210118 -46 67 C-49.80430328 59.72528176 -49.80430328 59.72528176 -49 55 C-46.5625 52.25 -46.5625 52.25 -44 50 C-43.67 49.34 -43.34 48.68 -43 48 C-43.62777344 46.85273437 -44.25554688 45.70546875 -44.90234375 44.5234375 C-47.49538924 39.56545402 -47.65441634 35.14345843 -47.5625 29.625 C-47.55081787 28.69469971 -47.53913574 27.76439941 -47.52709961 26.8059082 C-47.25609232 18.40172856 -45.69434653 12.85868579 -39.8046875 6.70703125 C-28.66719019 -3.67693901 -14.09815843 -6.03836565 0 0 Z M-30 18 C-34.74944521 23.64798889 -34.47232938 29.18322611 -34.53125 36.37890625 C-33.76282351 41.61663684 -31.40780594 44.66628911 -27.625 48.25 C-21.45383174 52.36411218 -15.2347433 52.6812987 -8 52 C-2.39795144 50.09741747 1.93859456 46.18005208 5.14453125 41.234375 C7.24973056 35.73586357 7.22668719 28.14305689 5.08984375 22.66796875 C3.86505333 20.86031987 2.61324465 19.46658605 1 18 C0.175 17.21625 -0.65 16.4325 -1.5 15.625 C-10.55856678 11.41923685 -21.9823227 11.71587455 -30 18 Z " fill="#000000" transform="translate(1030,543)"/>
<path d="M0 0 C7.44274374 0.1186219 12.60843804 2.4135801 18.87524414 6.47070312 C18.87524414 7.13070312 18.87524414 7.79070313 18.87524414 8.47070312 C19.53524414 8.47070312 20.19524414 8.47070312 20.87524414 8.47070312 C20.87524414 9.13070312 20.87524414 9.79070313 20.87524414 10.47070312 C21.53524414 10.47070312 22.19524414 10.47070312 22.87524414 10.47070312 C25.4788384 13.96928291 27.52564112 17.32549385 28.87524414 21.47070312 C29.0724707 22.07140625 29.26969727 22.67210937 29.47290039 23.29101562 C31.83318433 31.76302816 31.66287738 42.46003506 28.07446289 50.59960938 C23.77831975 57.30271219 17.48943818 62.95323126 9.87524414 65.47070312 C7.55334878 65.87611343 5.2200907 66.23143307 2.87524414 66.47070312 C2.54524414 66.80070312 2.21524414 67.13070313 1.87524414 67.47070312 C-3.27672672 67.64835729 -8.04668657 67.31704801 -13.12475586 66.47070312 C-12.98426068 67.95038637 -12.8372076 69.42944829 -12.68725586 70.90820312 C-12.60604492 71.73191406 -12.52483398 72.555625 -12.44116211 73.40429688 C-12.33544771 75.45732338 -12.33544771 75.45732338 -11.12475586 76.47070312 C-10.93913086 77.98664063 -10.93913086 77.98664063 -10.74975586 79.53320312 C-10.25174162 82.67069283 -9.68979786 84.74501161 -8.49975586 87.59570312 C-7.56607204 90.02140431 -7.11268747 91.65172902 -6.93725586 94.28320312 C-8.63107598 97.40339809 -10.7505441 97.98909832 -14.05444336 99.03710938 C-16.72579089 99.59658027 -18.57634857 99.44509415 -21.12475586 98.47070312 C-23.69522457 95.90023442 -23.782861 94.07972418 -24.49975586 90.53320312 C-25.44287436 86.19390538 -26.5263961 82.11301716 -28.12475586 77.97070312 C-30.07722679 72.88537009 -31.25435692 67.77453826 -32.40991211 62.45898438 C-33.15076363 59.36198211 -34.17902303 56.566463 -35.37475586 53.62695312 C-36.36325158 50.78502794 -36.97789233 47.90854163 -37.62475586 44.97070312 C-38.56846877 40.70199136 -39.66797034 36.75464641 -41.29663086 32.70898438 C-43.69150937 26.23603445 -46.12475586 19.39621463 -46.12475586 12.47070312 C-45.46475586 12.47070312 -44.80475586 12.47070312 -44.12475586 12.47070312 C-44.12475586 11.81070313 -44.12475586 11.15070312 -44.12475586 10.47070312 C-42.68835414 10.27496704 -41.25056082 10.08942496 -39.81225586 9.90820312 C-39.01174805 9.80378906 -38.21124023 9.699375 -37.38647461 9.59179688 C-35.12475586 9.47070312 -35.12475586 9.47070312 -32.12475586 10.47070312 C-32.12475586 11.13070312 -32.12475586 11.79070313 -32.12475586 12.47070312 C-29.83283737 12.50323248 -29.83283737 12.50323248 -27.12475586 11.47070312 C-25.7557094 9.93003146 -25.7557094 9.93003146 -24.43725586 8.09570312 C-21.28617892 4.07024357 -18.07207558 3.12941242 -13.19897461 1.97851562 C-8.69987042 0.87704002 -4.95641616 0.07117227 0 0 Z M-20.43725586 21.09570312 C-24.52287769 26.84583755 -23.63604489 33.68386653 -23.12475586 40.47070312 C-21.72499747 45.35172591 -19.13322289 49.31251698 -15.12475586 52.47070312 C-8.97729295 55.37658576 -2.39934689 55.4980258 4.06274414 53.47070312 C4.99086914 52.81070312 5.91899414 52.15070313 6.87524414 51.47070312 C7.58036133 51.00277344 8.28547852 50.53484375 9.01196289 50.05273438 C12.952919 46.93710938 14.65615665 44.68882957 15.55883789 39.66992188 C15.95560224 32.83076677 15.54483033 26.57163154 11.26196289 20.95117188 C10.57553711 20.21833984 10.57553711 20.21833984 9.87524414 19.47070312 C9.40731445 18.95121094 8.93938477 18.43171875 8.45727539 17.89648438 C4.43583703 14.27222511 0.83808454 14.14897499 -4.49975586 14.09570312 C-6.42948242 14.05316406 -6.42948242 14.05316406 -8.39819336 14.00976562 C-13.85478968 14.68469054 -16.86294549 17.03837784 -20.43725586 21.09570312 Z " fill="#000000" transform="translate(692.124755859375,974.529296875)"/>
<path d="M0 0 C0.82628906 0.20109375 1.65257812 0.4021875 2.50390625 0.609375 C7.69194626 2.00109959 11.68340284 3.7156326 16 7 C16.90298828 7.61294922 16.90298828 7.61294922 17.82421875 8.23828125 C25.97452967 13.92268277 35.98416488 23.04275612 38.51953125 33.05078125 C38.8125 35 38.8125 35 39 38 C33.0876515 42.92411734 33.0876515 42.92411734 29.3125 43.1875 C25.37516317 41.16562433 23.82257333 37.61628443 21.88671875 33.8125 C19.01408025 28.27307983 16.12027916 24.5862684 11 21 C10.01386719 20.26910156 10.01386719 20.26910156 9.0078125 19.5234375 C2.5534836 15.29147825 -3.46645364 15.47602846 -11 16 C-11 16.66 -11 17.32 -11 18 C-11.66 18 -12.32 18 -13 18 C-12.60635149 25.2168894 -10.68218505 31.5111717 -5.2890625 36.62109375 C-4.09762151 37.58101018 -2.89966318 38.53289379 -1.6953125 39.4765625 C0.73948338 41.66451271 2.1990622 44.18717249 3.8046875 47.015625 C4.96906363 48.94864159 6.276534 50.48669925 7.75 52.1875 C11.71373488 57.63919844 11.37532552 64.9438505 10.77734375 71.40625 C9.780149 76.44063127 7.53200177 79.46799823 4 83 C3.34 83 2.68 83 2 83 C2 83.66 2 84.32 2 85 C0.68 85 -0.64 85 -2 85 C-2 85.66 -2 86.32 -2 87 C-24.80127986 88.23833716 -24.80127986 88.23833716 -34 81 C-34 80.34 -34 79.68 -34 79 C-34.72316406 78.7628125 -35.44632813 78.525625 -36.19140625 78.28125 C-44.89624189 74.31019841 -50.70092686 65.21367632 -55 57 C-51.91251209 53.64787027 -49.48291244 51.14946473 -45 50 C-43.01953125 50.18359375 -43.01953125 50.18359375 -41 51 C-39.515625 52.99609375 -39.515625 52.99609375 -38.25 55.4375 C-37.82203125 56.24058594 -37.3940625 57.04367187 -36.953125 57.87109375 C-36 60 -36 60 -36 62 C-35.34 62 -34.68 62 -34 62 C-33.319375 62.721875 -32.63875 63.44375 -31.9375 64.1875 C-28.53910175 67.74772674 -24.34340924 69.78556059 -20 72 C-19.32195312 72.37769531 -18.64390625 72.75539063 -17.9453125 73.14453125 C-14.6695364 74.58508339 -12.35819061 73.97692818 -9 73 C-6.12388415 69.01054898 -5.59243625 65.82993458 -6 61 C-7.26782606 58.40828357 -7.26782606 58.40828357 -9.125 56.0625 C-9.76050781 55.20398438 -10.39601563 54.34546875 -11.05078125 53.4609375 C-13.20773158 50.73773368 -15.47055458 48.13496925 -17.77734375 45.5390625 C-19.37816794 43.52396751 -20.2569572 41.45204125 -21 39 C-21.66 39 -22.32 39 -23 39 C-23.82113177 37.60922699 -24.63152495 36.21211107 -25.4375 34.8125 C-25.88996094 34.03519531 -26.34242188 33.25789062 -26.80859375 32.45703125 C-29.74576182 26.39972399 -29.83466827 19.79859362 -27.9375 13.4375 C-23.76029606 6.02633172 -18.82375202 2.17012496 -10.6953125 -0.41015625 C-6.78069296 -1.26683386 -3.83815453 -1.0313659 0 0 Z " fill="#000000" transform="translate(287,902)"/>
<path d="M0 0 C3 1 3 1 4.5625 3.6875 C6.84934226 8.95718 8.46538413 13.1972416 8 19 C6.64453125 21.4921875 6.64453125 21.4921875 4.8125 23.875 C0.9548045 29.05756062 -2.4456074 34.390841 -5.75 39.9375 C-7 42 -7 42 -8 43 C-8.1613058 46.06481021 -7.98150241 48.05549278 -7 51 C2.02529002 53.04221891 10.47356241 52.61727655 19 49 C23.13782924 53.27575688 24.05944297 57.31953056 25 63 C20.83877098 66.01330378 16.52461514 66.99769852 11.6328125 68.25 C8.52544055 69.13518607 5.87336502 70.53274978 3 72 C0.49317646 72.80486642 -2.03103031 73.52672294 -4.5625 74.25 C-7.20787349 75.01383441 -7.20787349 75.01383441 -10.4375 76.5 C-13.47681249 77.77971052 -16.25727373 78.6293381 -19.4375 79.4375 C-23.61772675 80.53096531 -27.18552451 81.93999984 -30.98828125 83.9609375 C-37.90351918 87.53269146 -45.06318799 89.66154223 -52.62890625 91.38671875 C-54.93956103 91.77039006 -54.93956103 91.77039006 -56 93 C-58.375 93.375 -58.375 93.375 -61 93 C-64.40859481 89.10446307 -64.57920293 84.96540547 -65 80 C-61.44639422 77.70482709 -58.0987429 76.24671595 -54.0625 75 C-49.80437578 73.63428455 -45.98401198 72.03627279 -42 70 C-39.75526659 69.20602948 -37.49462226 68.47831999 -35.2265625 67.75390625 C-32.74469493 66.94943419 -32.74469493 66.94943419 -29.4375 65.4375 C-26.71713839 64.29989423 -24.46568225 63.61051963 -21.625 63 C-19.830625 62.505 -19.830625 62.505 -18 62 C-17.67 61.01 -17.34 60.02 -17 59 C-17.886875 58.71125 -18.77375 58.4225 -19.6875 58.125 C-22.50382424 57.16851252 -25.25083156 56.13201054 -28 55 C-28 54.34 -28 53.68 -28 53 C-28.87724731 52.80313599 -28.87724731 52.80313599 -29.7722168 52.60229492 C-38.55343403 50.22823871 -48.86850094 44.71545135 -55 38 C-56.375 34.75 -56.375 34.75 -57 32 C-57.33 31.34 -57.66 30.68 -58 30 C-58.039992 28.00039988 -58.04346799 25.99952758 -58 24 C-54.22190576 24.44448168 -51.9957588 25.63405945 -48.9375 27.82421875 C-45.47262013 29.92689787 -41.66611633 31.2764923 -37.90234375 32.75390625 C-35 34 -35 34 -32.3671875 35.609375 C-29.30303107 37.4094405 -26.50328697 37.65654049 -23 38 C-19.03596441 32.53605905 -15.3673521 27.37364028 -13 21 C-12.34 21 -11.68 21 -11 21 C-10.88269531 20.41734375 -10.76539063 19.8346875 -10.64453125 19.234375 C-9.9637061 16.87418113 -9.04663528 15.286599 -7.6875 13.25 C-5.8563662 10.42103098 -4.2333045 7.58887584 -2.75 4.5625 C-1 1 -1 1 0 0 Z " fill="#000000" transform="translate(142,679)"/>
<path d="M0 0 C0.87978516 0.32871094 0.87978516 0.32871094 1.77734375 0.6640625 C1.77734375 1.3240625 1.77734375 1.9840625 1.77734375 2.6640625 C2.43734375 2.6640625 3.09734375 2.6640625 3.77734375 2.6640625 C5.22265625 4.1328125 5.22265625 4.1328125 6.90234375 6.1640625 C13.04645942 13.85781086 13.04645942 13.85781086 20.77734375 19.6640625 C20.77734375 20.3240625 20.77734375 20.9840625 20.77734375 21.6640625 C21.43734375 21.6640625 22.09734375 21.6640625 22.77734375 21.6640625 C22.77734375 22.3240625 22.77734375 22.9840625 22.77734375 23.6640625 C23.43734375 23.6640625 24.09734375 23.6640625 24.77734375 23.6640625 C26.22265625 25.16796875 26.22265625 25.16796875 27.90234375 27.2265625 C31.07047237 30.98162863 34.47164611 34.11671907 38.2734375 37.21875 C39.01787109 37.93417969 39.01787109 37.93417969 39.77734375 38.6640625 C39.77734375 39.3240625 39.77734375 39.9840625 39.77734375 40.6640625 C40.43734375 40.6640625 41.09734375 40.6640625 41.77734375 40.6640625 C41.77734375 41.3240625 41.77734375 41.9840625 41.77734375 42.6640625 C42.43734375 42.6640625 43.09734375 42.6640625 43.77734375 42.6640625 C43.77734375 43.3240625 43.77734375 43.9840625 43.77734375 44.6640625 C44.36644531 44.93605469 44.95554687 45.20804688 45.5625 45.48828125 C51.045573 48.3990484 55.48885188 53.25644586 59.77734375 57.6640625 C60.39609375 58.1796875 61.01484375 58.6953125 61.65234375 59.2265625 C62.77734375 60.6640625 62.77734375 60.6640625 62.5859375 62.484375 C61.54627675 65.28693877 60.05803939 66.85229902 57.96484375 68.9765625 C57.27777344 69.69457031 56.59070313 70.41257812 55.8828125 71.15234375 C53.77734375 72.6640625 53.77734375 72.6640625 51.8500061 72.44052124 C49.47708011 71.55157803 48.28991146 70.54519118 46.50927734 68.75244141 C45.89539154 68.1415567 45.28150574 67.530672 44.64901733 66.90127563 C43.99784943 66.23776093 43.34668152 65.57424622 42.67578125 64.890625 C41.99810699 64.21107758 41.32043274 63.53153015 40.6222229 62.83139038 C39.1915693 61.39401767 37.76451649 59.95305331 36.34082031 58.50878906 C34.16070429 56.29754242 31.9701222 54.0971211 29.77734375 51.8984375 C28.38869803 50.50062051 27.00065658 49.1022029 25.61328125 47.703125 C24.95806488 47.04365875 24.30284851 46.3841925 23.6277771 45.70474243 C22.71640488 44.77895889 22.71640488 44.77895889 21.78662109 43.83447266 C20.98531265 43.02292221 20.98531265 43.02292221 20.16781616 42.19497681 C18.77734375 40.6640625 18.77734375 40.6640625 16.77734375 37.6640625 C15.78734375 37.6640625 14.79734375 37.6640625 13.77734375 37.6640625 C13.87273438 38.44007813 13.968125 39.21609375 14.06640625 40.015625 C14.82703675 47.42735006 14.48895717 53.95843921 13.24609375 61.29296875 C12.68327199 65.34059526 12.74290132 69.1920347 13 73.26171875 C12.507251 78.57822115 8.75645234 81.91623242 5.08984375 85.4765625 C4.28160156 86.26675781 3.47335937 87.05695313 2.640625 87.87109375 C2.02574219 88.46277344 1.41085937 89.05445313 0.77734375 89.6640625 C-0.21265625 89.1690625 -0.21265625 89.1690625 -1.22265625 88.6640625 C-1.21218262 87.6445752 -1.20170898 86.62508789 -1.19091797 85.57470703 C-1.15476898 81.79902648 -1.13177448 78.02336129 -1.11279297 74.24755859 C-1.10272371 72.61211578 -1.08906744 70.97669101 -1.07177734 69.34130859 C-1.0475692 66.9931188 -1.03618268 64.64516662 -1.02734375 62.296875 C-1.01702118 61.56348907 -1.00669861 60.83010315 -0.99606323 60.07449341 C-0.99566257 58.26943553 -1.1005287 56.4649842 -1.22265625 54.6640625 C-3.86675206 52.01996669 -5.35201678 52.34572166 -9.03515625 52.1640625 C-14.72546781 51.8813141 -14.72546781 51.8813141 -17.484375 50.67578125 C-21.65061038 49.13647317 -25.81315894 49.15230333 -30.22265625 48.9765625 C-31.11210938 48.92951172 -32.0015625 48.88246094 -32.91796875 48.83398438 C-36.50048101 48.67089986 -39.67534364 48.55359573 -43.203125 49.265625 C-44.20279297 49.46285156 -44.20279297 49.46285156 -45.22265625 49.6640625 C-47.53515625 47.7265625 -47.53515625 47.7265625 -49.22265625 45.6640625 C-47.93300449 44.28843396 -46.59576332 42.95639857 -45.22265625 41.6640625 C-44.56265625 41.6640625 -43.90265625 41.6640625 -43.22265625 41.6640625 C-42.97515625 41.0659375 -42.72765625 40.4678125 -42.47265625 39.8515625 C-40.9132168 37.12254345 -40.0077056 36.18828331 -37.22265625 34.6640625 C-34.02823953 34.26807609 -30.87374329 34.33691712 -27.66015625 34.4140625 C-26.79712891 34.41921875 -25.93410156 34.424375 -25.04492188 34.4296875 C-21.46518813 34.47419079 -18.64545545 34.52312943 -15.22265625 35.6640625 C-12.82774639 35.73376302 -10.43097934 35.74854253 -8.03515625 35.7265625 C-6.76285156 35.71753906 -5.49054687 35.70851563 -4.1796875 35.69921875 C-3.20386719 35.68761719 -2.22804688 35.67601562 -1.22265625 35.6640625 C-0.15645522 26.71449382 -0.15645522 26.71449382 -2.640625 18.47265625 C-4.42990122 17.01147758 -6.23445079 15.8348473 -8.22265625 14.6640625 C-9.57319171 13.34815615 -10.91571792 12.02327836 -12.22265625 10.6640625 C-10.05562798 6.33000595 -5.49166507 -0.83002319 0 0 Z " fill="#000000" transform="translate(884.22265625,847.3359375)"/>
<path d="M0 0 C4.66666667 0.66666667 9.33333333 1.33333333 14 2 C14.0270491 5.06255961 14.04686298 8.1248786 14.0625 11.1875 C14.07087891 12.05181641 14.07925781 12.91613281 14.08789062 13.80664062 C14.09111328 14.64775391 14.09433594 15.48886719 14.09765625 16.35546875 C14.10289307 17.12528076 14.10812988 17.89509277 14.11352539 18.68823242 C14 21 14 21 13.51147461 23.40380859 C12.92876818 26.36156523 12.80431228 29.17048175 12.71875 32.18359375 C12.68136719 33.35857422 12.64398437 34.53355469 12.60546875 35.74414062 C12.57066406 36.96294922 12.53585937 38.18175781 12.5 39.4375 C12.4308034 41.85297402 12.35800849 44.2683482 12.28125 46.68359375 C12.25095703 47.75150146 12.22066406 48.81940918 12.18945312 49.91967773 C11.99946592 53.00868363 11.50878388 55.9495228 11 59 C10.85950381 61.16207099 10.7557747 63.32675912 10.68359375 65.4921875 C10.64169922 66.69101563 10.59980469 67.88984375 10.55664062 69.125 C10.51732422 70.3625 10.47800781 71.6 10.4375 72.875 C10.37272461 74.76605469 10.37272461 74.76605469 10.30664062 76.6953125 C10.20090898 79.79677423 10.09881429 82.89831145 10 86 C3.60962769 86.02527062 -2.78073183 86.04283317 -9.17114258 86.05493164 C-11.34692873 86.05997308 -13.52271147 86.06680607 -15.69848633 86.07543945 C-18.81853067 86.08751338 -21.93853038 86.09323005 -25.05859375 86.09765625 C-26.03775253 86.10281754 -27.01691132 86.10797882 -28.02574158 86.11329651 C-29.37702904 86.11340981 -29.37702904 86.11340981 -30.75561523 86.11352539 C-31.95141457 86.11685631 -31.95141457 86.11685631 -33.17137146 86.12025452 C-35 86 -35 86 -36 85 C-38.83707088 84.7889782 -41.65897646 84.62392187 -44.5 84.5 C-52.86486486 84.13513514 -52.86486486 84.13513514 -54 83 C-54.42275365 79.29184657 -54.50270917 75.70126533 -54 72 C-51.6875 69.75 -51.6875 69.75 -49 69 C-48.01 69.33 -47.02 69.66 -46 70 C-43.88402394 70.13940041 -41.7643567 70.22532813 -39.64453125 70.28125 C-38.38189453 70.31863281 -37.11925781 70.35601563 -35.81835938 70.39453125 C-34.4830851 70.43014728 -33.14779839 70.46530008 -31.8125 70.5 C-16.08074549 70.92034376 -16.08074549 70.92034376 -9 72 C-5.15087242 67.2012189 -5.65149777 62.52899131 -5.8125 56.6875 C-5.82603516 55.75615234 -5.83957031 54.82480469 -5.85351562 53.86523438 C-5.88873118 51.57622354 -5.93797901 49.28841542 -6 47 C-7.70313354 46.97812622 -7.70313354 46.97812622 -9.44067383 46.95581055 C-13.65095609 46.89786324 -17.8607015 46.82063059 -22.07055664 46.73754883 C-23.89305919 46.7042826 -25.71566519 46.67625594 -27.53833008 46.65356445 C-30.1575125 46.62004919 -32.77574548 46.56773648 -35.39453125 46.51171875 C-36.21025101 46.50532883 -37.02597076 46.4989389 -37.8664093 46.49235535 C-43.55223426 46.34437776 -43.55223426 46.34437776 -45.74833679 44.65534973 C-47 43 -47 43 -46.85546875 40.08203125 C-46.52482422 38.46361328 -46.52482422 38.46361328 -46.1875 36.8125 C-45.97480469 35.72582031 -45.76210938 34.63914062 -45.54296875 33.51953125 C-45.36378906 32.68808594 -45.18460937 31.85664062 -45 31 C-42.60408962 30.97287649 -40.20849043 30.9531018 -37.8125 30.9375 C-37.13896484 30.92912109 -36.46542969 30.92074219 -35.77148438 30.91210938 C-32.01404864 30.89378042 -28.6641103 31.25077148 -25 32 C-21.77498792 32.29076464 -18.54604232 32.45930228 -15.3125 32.625 C-14.44560547 32.6765625 -13.57871094 32.728125 -12.68554688 32.78125 C-11.85732422 32.82507812 -11.02910156 32.86890625 -10.17578125 32.9140625 C-9.42208252 32.9548291 -8.66838379 32.9955957 -7.8918457 33.03759766 C-5.90947097 33.13363273 -5.90947097 33.13363273 -4 32 C-3.98541748 31.17274414 -3.97083496 30.34548828 -3.95581055 29.49316406 C-3.8813414 25.74497119 -3.7846754 21.99767003 -3.6875 18.25 C-3.66494141 16.94804688 -3.64238281 15.64609375 -3.61914062 14.3046875 C-3.58369141 13.05429687 -3.54824219 11.80390625 -3.51171875 10.515625 C-3.48553467 9.36352539 -3.45935059 8.21142578 -3.43237305 7.02441406 C-2.96874062 3.78134322 -2.19232251 2.37863165 0 0 Z " fill="#000000" transform="translate(541,994)"/>
<path d="M0 0 C0.67224609 -0.020625 1.34449219 -0.04125 2.03710938 -0.0625 C4.92343391 -0.08543009 6.94199777 -0.08033482 9.3828125 1.546875 C11.14929354 4.39941476 10.72789376 6.99758994 10.4375 10.25 C8.4375 13.25 8.4375 13.25 6.72265625 13.9453125 C0.0905429 15.22744338 -6.48310065 15.57045225 -13.21582031 15.85375977 C-20.74738506 16.1922487 -28.11282894 17.10304018 -35.5625 18.25 C-35.89221788 30.39524392 -35.89221788 30.39524392 -33.5625 42.25 C-32.9025 42.58 -32.2425 42.91 -31.5625 43.25 C-30.5725 42.755 -30.5725 42.755 -29.5625 42.25 C-27.21122909 42.06320294 -24.85593558 41.92623482 -22.5 41.8125 C-15.65986069 41.46295223 -8.92076032 40.76062675 -2.14819336 39.73461914 C0.70732338 39.34583666 3.05964164 39.15021132 5.86328125 39.890625 C8.10014344 41.82220823 8.13179905 43.28188864 8.375 46.1875 C8.46652344 47.06277344 8.55804687 47.93804687 8.65234375 48.83984375 C8.4375 51.25 8.4375 51.25 7.19506836 52.85986328 C5.04382839 54.56137188 3.82144521 54.71546204 1.1015625 54.90234375 C-0.2282666 54.99878174 -0.2282666 54.99878174 -1.58496094 55.09716797 C-7.11823854 55.38118173 -12.65007756 55.62421529 -18.1875 55.8125 C-19.38246094 55.85568359 -20.57742188 55.89886719 -21.80859375 55.94335938 C-24.72647406 56.04840307 -27.64442438 56.15055648 -30.5625 56.25 C-32.33865224 59.80230448 -31.74718773 63.90062614 -31.75 67.8125 C-31.76836914 69.11670898 -31.76836914 69.11670898 -31.78710938 70.44726562 C-31.79883796 75.68994232 -31.28313878 80.33995909 -29.87744141 85.39794922 C-29.5625 87.25 -29.5625 87.25 -30.75 89.8125 C-35.13770921 92.05510693 -39.72609225 91.91020804 -44.5625 91.25 C-47.287049 88.525451 -47.18928235 85.85811049 -47.5625 82.1875 C-47.64298584 81.45813232 -47.72347168 80.72876465 -47.80639648 79.97729492 C-48.66003594 71.93589556 -49.27027124 63.87044455 -49.86523438 55.80639648 C-50.29566018 49.95220376 -50.29566018 49.95220376 -51.08984375 44.140625 C-51.93479468 38.97315652 -51.96243603 33.73171899 -52.16796875 28.50585938 C-52.35093801 24.30072103 -52.68447462 20.37384051 -53.5625 16.25 C-53.65145063 14.33494517 -53.69268139 12.41711251 -53.6875 10.5 C-53.69007813 9.53578125 -53.69265625 8.5715625 -53.6953125 7.578125 C-53.5625 5.25 -53.5625 5.25 -52.5625 4.25 C-51.17228423 4.10575512 -49.77552699 4.02312811 -48.37890625 3.96875 C-47.53392578 3.93136719 -46.68894531 3.89398438 -45.81835938 3.85546875 C-44.48514648 3.80326172 -44.48514648 3.80326172 -43.125 3.75 C-41.3761346 3.68121724 -39.62741862 3.60848817 -37.87890625 3.53125 C-37.09974854 3.50095703 -36.32059082 3.47066406 -35.51782227 3.43945312 C-33.48440634 3.36048278 -33.48440634 3.36048278 -31.5625 2.25 C-30.08956119 2.1104395 -28.61129378 2.0245978 -27.1328125 1.96875 C-26.25496094 1.93136719 -25.37710938 1.89398438 -24.47265625 1.85546875 C-23.55355469 1.82066406 -22.63445313 1.78585938 -21.6875 1.75 C-19.87745538 1.68087524 -18.06754598 1.60809081 -16.2578125 1.53125 C-15.45359863 1.50095703 -14.64938477 1.47066406 -13.82080078 1.43945312 C-9.11263711 1.04447637 -4.81798202 0.05651592 0 0 Z " fill="#000000" transform="translate(540.5625,56.75)"/>
<path d="M0 0 C6.76657478 4.96083195 11.62893763 10.30274093 15 18 C15.36351562 18.7734375 15.72703125 19.546875 16.1015625 20.34375 C18.38515905 27.09525285 18.07450354 35.4613855 15.25 42 C14.53595423 43.35292883 13.78826863 44.68892779 13 46 C12.360625 47.0725 11.72125 48.145 11.0625 49.25 C5.62468917 56.50041444 -1.11808881 62.00225079 -10.36425781 63.34277344 C-18.67580932 64.03354582 -28.09317648 64.67895337 -35.171875 59.62890625 C-35.77515625 59.09136719 -36.3784375 58.55382812 -37 58 C-38.12148438 57.02353516 -38.12148438 57.02353516 -39.265625 56.02734375 C-45.4759313 50.21875307 -45.4759313 50.21875307 -46 46 C-44.83789182 42.70736015 -44.01468588 42.00979059 -41 40 C-40.01 40 -39.02 40 -38 40 C-38 39.34 -38 38.68 -38 38 C-36.12890625 36.51953125 -36.12890625 36.51953125 -33.5625 34.8125 C-29.34099924 31.94472944 -25.3099303 28.93501617 -21.3125 25.765625 C-17.97009084 23.21365044 -14.47688209 20.89522459 -10.96875 18.578125 C-8.72174806 17.06930928 -8.72174806 17.06930928 -8 14 C-10.45584238 11.54415762 -11.90154505 11.71453377 -15.26367188 11.67773438 C-15.93978516 11.68095703 -16.61589844 11.68417969 -17.3125 11.6875 C-18.62863281 11.67074219 -19.94476562 11.65398438 -21.30078125 11.63671875 C-25.1246466 12.0122409 -26.89320902 12.85523901 -30 15 C-30.66 15 -31.32 15 -32 15 C-32 15.66 -32 16.32 -32 17 C-33.875 19.125 -33.875 19.125 -36 21 C-36.66 21 -37.32 21 -38 21 C-38.2475 21.9075 -38.495 22.815 -38.75 23.75 C-40.10133261 27.26346479 -40.85384017 28.930158 -44 31 C-46.85016465 31.23185863 -49.29209048 30.9145133 -52 30 C-53.625 28.375 -53.625 28.375 -54 26 C-52.4531748 18.26587399 -48.74173134 13.39490802 -43.25 7.9375 C-42.74984375 7.42123047 -42.2496875 6.90496094 -41.734375 6.37304688 C-30.74921248 -4.62612733 -13.75550559 -8.28001307 0 0 Z M-7.0625 28.375 C-9.59361931 30.81088907 -11.7742892 32.57752619 -15 34 C-15 34.66 -15 35.32 -15 36 C-15.680625 36.20625 -16.36125 36.4125 -17.0625 36.625 C-20.88259002 38.41312724 -24.28826009 40.73340841 -27 44 C-27.46088966 47.91477309 -27.46088966 47.91477309 -25.35546875 49.71875 C-20.83443943 52.17795003 -15.98354388 51.66280508 -11 51 C-6.3041221 49.37690483 -2.99440379 46.99440379 0.5 43.5 C2.7753079 38.19094823 3.03967579 32.74505491 3 27 C2.67 26.34 2.34 25.68 2 25 C-2.33930992 24.5924822 -3.96883846 25.36129393 -7.0625 28.375 Z " fill="#000000" transform="translate(846,909)"/>
<path d="M0 0 C2.60320449 1.7687095 4.21126164 3.69508134 5.9375 6.31640625 C6.700625 7.32703125 7.46375 8.33765625 8.25 9.37890625 C9.9375 12.31640625 9.9375 12.31640625 9.8125 14.56640625 C8.00233413 18.18673799 5.37374884 18.98970553 1.79248047 20.46826172 C-1.05385224 21.76967786 -3.47000293 23.54706868 -6 25.37890625 C-9.74013522 28.06564009 -13.50728456 30.62331863 -17.4609375 32.98828125 C-18.56127319 33.64944946 -18.56127319 33.64944946 -19.68383789 34.32397461 C-21.12647471 35.18312712 -22.5761056 36.03065982 -24.03295898 36.86547852 C-26.25200819 38.14905847 -26.25200819 38.14905847 -29.0625 40.31640625 C-29.0625 41.63640625 -29.0625 42.95640625 -29.0625 44.31640625 C-26.18929728 46.99806212 -23.31162148 47.63451241 -19.5 47.94140625 C-12.65148996 47.68586483 -7.27130621 44.61422238 -2.0625 40.31640625 C0.07059996 37.49397417 1.7988272 34.70647352 3.4375 31.57421875 C4.9375 29.31640625 4.9375 29.31640625 6.9296875 28.4140625 C10.12614488 28.25859278 12.23461677 29.72993131 14.9375 31.31640625 C15.5975 31.97640625 16.2575 32.63640625 16.9375 33.31640625 C16.625 35.19140625 16.625 35.19140625 15.9375 37.31640625 C15.6590625 38.43015625 15.6590625 38.43015625 15.375 39.56640625 C15.230625 40.14390625 15.08625 40.72140625 14.9375 41.31640625 C14.2775 41.31640625 13.6175 41.31640625 12.9375 41.31640625 C12.710625 42.20328125 12.48375 43.09015625 12.25 44.00390625 C10.71969429 47.86610638 9.14227263 49.69431955 5.9375 52.31640625 C2.625 53.62890625 2.625 53.62890625 -0.0625 54.31640625 C-0.0625 54.97640625 -0.0625 55.63640625 -0.0625 56.31640625 C-1.96632656 57.03034121 -3.87063077 57.74302876 -5.77734375 58.44921875 C-7.23724388 59.00323213 -8.68906905 59.57935205 -10.12890625 60.18359375 C-17.68469539 63.28871257 -25.35535793 62.9915152 -33.0625 60.31640625 C-36.37474739 58.29817191 -39.19832806 55.92170111 -42.0625 53.31640625 C-42.6296875 52.84074219 -43.196875 52.36507812 -43.78125 51.875 C-50.86901888 45.52855389 -53.8916494 36.81555393 -55.03515625 27.55859375 C-55.10808841 18.9109232 -50.78406426 11.54442476 -45.0625 5.31640625 C-31.3776023 -8.27389538 -16.31296295 -9.48757394 0 0 Z M-34.83984375 12.58984375 C-36.25513829 14.23583297 -36.25513829 14.23583297 -36.0625 16.31640625 C-36.7225 16.31640625 -37.3825 16.31640625 -38.0625 16.31640625 C-40.03344808 21.24377644 -40.2424928 25.09661497 -40.0625 30.31640625 C-38.17933841 31.42477048 -38.17933841 31.42477048 -36.0625 32.31640625 C-35.4025 31.98640625 -34.7425 31.65640625 -34.0625 31.31640625 C-34.0625 30.65640625 -34.0625 29.99640625 -34.0625 29.31640625 C-33.18464844 29.06632812 -32.30679687 28.81625 -31.40234375 28.55859375 C-27.91722988 27.26237596 -25.56189484 25.70055613 -22.625 23.44140625 C-19.47517485 21.06077442 -16.44722347 18.87554206 -12.9375 17.06640625 C-10.01774846 15.59718191 -10.01774846 15.59718191 -8.875 13.31640625 C-8.90232427 11.15285183 -8.90232427 11.15285183 -10.62109375 9.234375 C-14.72712421 6.00867747 -19.31784773 6.50470387 -24.33203125 6.71875 C-29.14895126 7.49046598 -31.50312388 9.14685892 -34.83984375 12.58984375 Z " fill="#000000" transform="translate(331.0625,154.68359375)"/>
<path d="M0 0 C1.17178374 3.07110353 0.99615591 4.81317378 -0.25 7.8125 C-0.67345703 8.85277344 -0.67345703 8.85277344 -1.10546875 9.9140625 C-1.40066406 10.60242188 -1.69585937 11.29078125 -2 12 C-2.26425781 12.62648438 -2.52851563 13.25296875 -2.80078125 13.8984375 C-3.52619857 15.60223817 -4.26281076 17.30125958 -5 19 C-5.28875 19.78375 -5.5775 20.5675 -5.875 21.375 C-6.90453499 23.77724832 -8.07500852 25.92440508 -9.375 28.1875 C-14.96394827 37.58354572 -14.96394827 37.58354572 -15 48 C-9.65130078 48.50939993 -7.14410399 47.36708449 -3 44 C3.98052538 36.83665134 5.32469052 31.92732357 5.390625 22.11132812 C5.56739557 16.47922128 5.56739557 16.47922128 7.8125 13.9921875 C10.98175903 12.55470216 13.57134555 12.682532 17 13 C20.43975302 16.43975302 19.84464278 21.31442627 20 26 C19.72343418 37.54201369 15.17806031 45.58109967 7.3125 53.8125 C6.549375 54.534375 5.78625 55.25625 5 56 C4.54625 56.53625 4.0925 57.0725 3.625 57.625 C-1.92196709 62.31858754 -8.0808276 62.46794411 -15 62.375 C-16.29550781 62.39240234 -16.29550781 62.39240234 -17.6171875 62.41015625 C-23.16728217 62.38485187 -27.0576612 61.53832074 -32 59 C-32 58.34 -32 57.68 -32 57 C-32.57878906 56.89558594 -33.15757813 56.79117188 -33.75390625 56.68359375 C-39.69257982 54.87617136 -44.01724076 49.57575794 -46.9375 44.3125 C-50.44990374 36.55446345 -50.64094812 28.26855526 -49 20 C-44.73001085 9.86782237 -39.19588416 1.31314787 -28.96875 -3.2890625 C-19.7316983 -6.6246645 -7.94270961 -6.07383676 0 0 Z M-29.89453125 13.91015625 C-35.36381582 20.04778517 -36.38561345 23.34364155 -36.3671875 31.64453125 C-35.85068338 36.36449974 -34.02501854 39.42399594 -31 43 C-27.70924004 42.62095792 -27.70924004 42.62095792 -25 41 C-24.7525 39.741875 -24.505 38.48375 -24.25 37.1875 C-22.77064479 30.23564279 -20.10643969 23.38927145 -16.3515625 17.34765625 C-14.66249295 14.41375221 -14.76770737 12.32952769 -15 9 C-21.29460167 8.6223239 -25.34991027 9.32805386 -29.89453125 13.91015625 Z " fill="#000000" transform="translate(154,354)"/>
<path d="M0 0 C0.85553467 0.00161133 1.71106934 0.00322266 2.5925293 0.00488281 C8.77410553 0.12533764 13.57753031 0.90489481 18.8125 4.375 C19.885 5.014375 20.9575 5.65375 22.0625 6.3125 C29.87119512 12.16902134 33.92987994 18.43491686 35.5703125 27.9609375 C35.90134469 31.26058093 35.47269642 34.13403576 34.8125 37.375 C34.7196875 39.293125 34.7196875 39.293125 34.625 41.25 C34.00486146 46.46526348 31.00752148 50.34545798 27.8125 54.375 C27.33554687 54.97699219 26.85859375 55.57898438 26.3671875 56.19921875 C24.8125 57.375 24.8125 57.375 22.8828125 57.32421875 C20.1650063 56.07813025 18.6950812 54.39880253 16.6875 52.1875 C12.83842433 48.18673662 9.04312978 45.53500461 4.2265625 42.8359375 C0.33875714 40.48312325 -2.86702352 37.45436305 -6.1875 34.375 C-7.45075706 33.22081935 -8.72123627 32.07447612 -10 30.9375 C-10.81404297 30.19693359 -10.81404297 30.19693359 -11.64453125 29.44140625 C-13.28621647 28.09071999 -13.28621647 28.09071999 -16.1875 28.375 C-17.559012 33.72389682 -17.24245154 38.28491083 -15.1875 43.375 C-13.10758432 46.31856617 -10.75215519 48.85032829 -8.1875 51.375 C-7.7646875 51.91382813 -7.341875 52.45265625 -6.90625 53.0078125 C-3.4536168 55.75422528 1.41437791 55.79513982 5.66015625 56.53125 C8.8125 57.375 8.8125 57.375 10.8125 60.375 C11.0078125 62.63671875 11.0078125 62.63671875 10.9375 65.0625 C10.91945313 65.87074219 10.90140625 66.67898437 10.8828125 67.51171875 C10.85960937 68.12660156 10.83640625 68.74148437 10.8125 69.375 C-1.56502343 70.21362769 -9.33317009 69.19162259 -19.12890625 60.87890625 C-27.5808128 53.15491509 -32.62561885 45.50001694 -33.19921875 33.9296875 C-33.15985023 25.34735023 -33.15985023 25.34735023 -30.1875 22.375 C-29.56875 20.7971875 -29.56875 20.7971875 -28.9375 19.1875 C-23.92258332 7.16167991 -12.6151932 -0.02429035 0 0 Z M-7.1875 16.375 C-8.49365946 18.88900388 -8.49365946 18.88900388 -8.1875 21.375 C-6.22818681 23.59811207 -6.22818681 23.59811207 -3.0546875 24.62109375 C1.4566104 26.48150717 4.94838855 29.35236357 8.6875 32.4375 C9.36296875 32.97955078 10.0384375 33.52160156 10.734375 34.08007812 C15.66918718 38.08837437 15.66918718 38.08837437 16.8125 40.375 C18.1325 40.045 19.4525 39.715 20.8125 39.375 C20.94843443 36.83151575 21.04698907 34.29538504 21.125 31.75 C21.16689453 31.03714844 21.20878906 30.32429688 21.25195312 29.58984375 C21.34157661 25.68225987 21.06870844 23.15585267 18.60546875 20.03125 C16.04621494 17.59727435 13.97652879 16.01280127 10.8125 14.5 C9.9875 14.09007812 9.1625 13.68015625 8.3125 13.2578125 C2.4592225 11.19087388 -2.30004786 12.84012183 -7.1875 16.375 Z " fill="#000000" transform="translate(833.1875,170.625)"/>
<path d="M0 0 C1.02722168 -0.03456299 1.02722168 -0.03456299 2.07519531 -0.06982422 C7.79941019 0.01724134 10.07040955 1.72984648 13.9375 5.625 C14.54464844 6.1921875 15.15179687 6.759375 15.77734375 7.34375 C17.69567599 11.11582416 17.51078346 14.9525694 17.5 19.125 C17.4990332 20.01977051 17.49806641 20.91454102 17.49707031 21.83642578 C17.29320004 29.56534323 15.2871202 35.19604917 10.9375 41.625 C10.51210938 42.30304687 10.08671875 42.98109375 9.6484375 43.6796875 C8.7877735 45.02331403 7.87173357 46.33144583 6.9375 47.625 C8.47577847 49.832809 8.47577847 49.832809 10.9375 51.625 C15.79433495 51.71494139 19.01658662 50.54688906 22.5859375 47.1875 C26.79223348 42.32473009 28.08497515 37.8142829 28.4375 31.4375 C28.6560674 27.75905717 28.88192846 25.7405888 30.5 22.375 C34.19440878 19.72260395 36.44291685 20.05425928 40.9375 20.625 C42.9375 21.6875 42.9375 21.6875 43.9375 23.625 C45.16573362 35.90733621 39.53921343 49.62563133 31.96484375 59.08984375 C26.94292237 64.55461534 22.38418455 67.68017859 14.9375 68.625 C5.54435425 68.29541594 -2.88150422 63.87501591 -11.0625 59.625 C-18.65356281 55.77759345 -26.24451502 51.99482111 -34.0625 48.625 C-34.372893 44.66748927 -34.44929324 42.29444984 -32.4375 38.8125 C-29.74134508 36.32919942 -27.53056123 35.67491991 -24.0625 34.625 C-24.03671875 33.635 -24.0109375 32.645 -23.984375 31.625 C-23.70186841 24.21319086 -23.2927416 17.94014639 -19.0625 11.625 C-18.464375 10.573125 -17.86625 9.52125 -17.25 8.4375 C-12.08317996 1.79444567 -8.31978384 0.16443008 0 0 Z M-10.8125 20.125 C-14.17764652 24.35788871 -14.10115083 29.40713783 -14.0625 34.625 C-13.72454354 38.1050332 -13.72454354 38.1050332 -13.0625 40.625 C-12.4025 40.625 -11.7425 40.625 -11.0625 40.625 C-11.0625 41.285 -11.0625 41.945 -11.0625 42.625 C-10.4025 42.625 -9.7425 42.625 -9.0625 42.625 C-9.0625 43.285 -9.0625 43.945 -9.0625 44.625 C-7.0825 44.955 -5.1025 45.285 -3.0625 45.625 C-0.65662335 42.73126503 0.49743245 40.31907049 1.4375 36.6875 C2.26408344 33.69168173 2.93173881 31.63396185 4.625 29 C6.61681608 25.39576138 6.26752928 22.71736306 5.9375 18.625 C4.20175255 15.30335395 4.20175255 15.30335395 0.625 14.75 C-4.91440925 14.56222342 -6.82744886 16.50222624 -10.8125 20.125 Z " fill="#000000" transform="translate(962.0625,735.375)"/>
<path d="M0 0 C1.12664062 -0.01417969 2.25328125 -0.02835937 3.4140625 -0.04296875 C6.375 0.1875 6.375 0.1875 9.375 2.1875 C9.13910156 3.17556641 9.13910156 3.17556641 8.8984375 4.18359375 C8.25639976 7.86812377 8.13953884 11.52150588 8 15.25 C7.6508107 23.05774321 6.69057232 30.6691402 5.39111328 38.37329102 C4.61665006 43.05596943 4.22882471 47.43998086 4.375 52.1875 C9.46623503 49.76310237 14.35870698 47.20379302 18.375 43.1875 C20.74723351 35.93900871 22.19928072 27.44338234 18.8125 20.3125 C17.375 17.1875 17.375 17.1875 17.375 14.5 C18.76775795 11.27924725 20.37075311 9.9627368 23.375 8.1875 C26.19098567 8.25454728 27.69526197 8.71691214 30 10.3125 C34.50762218 16.45925752 34.84445203 22.2419998 34.75 29.625 C34.76160156 30.52798828 34.77320313 31.43097656 34.78515625 32.36132812 C34.75915797 38.34526521 33.79535954 42.71512611 31.375 48.1875 C30.88 49.40953125 30.88 49.40953125 30.375 50.65625 C26.65372838 58.21508297 20.15184848 63.35962431 12.3125 66.359375 C2.52105076 69.11973037 -7.020286 68.45042587 -16.2421875 63.89453125 C-21.02393501 60.89185141 -25.74726348 57.13043568 -28.625 52.1875 C-28.625 50.8675 -28.625 49.5475 -28.625 48.1875 C-29.285 48.1875 -29.945 48.1875 -30.625 48.1875 C-32.5545368 35.88670291 -33.35371378 22.73511564 -26.109375 12.0390625 C-19.19876752 3.41898896 -10.89007573 0.06258664 0 0 Z M-16.9375 21.125 C-20.47370095 25.44702339 -21.01455962 29.46984073 -20.87890625 34.9140625 C-20.24137008 40.62246329 -17.42662682 45.02947067 -13.625 49.1875 C-10.84385944 51.52141203 -10.84385944 51.52141203 -7.9375 50.8125 C-7.174375 50.60625 -6.41125 50.4 -5.625 50.1875 C-5.56441406 49.21167969 -5.50382812 48.23585938 -5.44140625 47.23046875 C-5.35761719 45.95816406 -5.27382812 44.68585937 -5.1875 43.375 C-5.10628906 42.11042969 -5.02507812 40.84585938 -4.94140625 39.54296875 C-4.625 36.1875 -4.625 36.1875 -3.625 33.1875 C-3.37074804 30.49525422 -3.16218674 27.82254712 -3 25.125 C-2.9484375 24.39216797 -2.896875 23.65933594 -2.84375 22.90429688 C-2.48646603 18.92332201 -2.48646603 18.92332201 -3.625 15.1875 C-9.21898221 15.1875 -12.77904642 17.64089025 -16.9375 21.125 Z " fill="#000000" transform="translate(100.625,487.8125)"/>
<path d="M0 0 C2.81017285 1.68610371 4.14624741 3.32322856 5.875 6.125 C6.171875 8.09375 6.171875 8.09375 6.3125 10.1875 C6.48876341 14.18221495 6.48876341 14.18221495 9.125 16.4375 C10.82303202 17.47947419 12.54030003 18.4916159 14.28515625 19.453125 C17.04153773 21.23250852 18.91103875 23.09476978 21.0625 25.5625 C21.73667969 26.32433594 22.41085938 27.08617187 23.10546875 27.87109375 C27.35012214 33.27763902 28.58433137 39.31993432 28.875 46.125 C27.8573553 50.91222998 25.67869454 54.7040634 22.125 58.0625 C16.70960695 61.49919175 11.39849198 62.90915875 4.9375 61.7734375 C-6.63316549 58.1356904 -13.58931962 46.61227798 -20.125 37.125 C-22.07636159 37.37907814 -22.07636159 37.37907814 -24.125 38.125 C-25.91930399 41.34237267 -27.15809289 43.8343772 -27.0625 47.5625 C-24.55966533 54.40358142 -21.40802678 62.00651364 -14.58203125 65.3828125 C-12.11623176 66.37747915 -9.64942929 67.29169325 -7.125 68.125 C-7.125 70.765 -7.125 73.405 -7.125 76.125 C-7.785 76.125 -8.445 76.125 -9.125 76.125 C-9.785 77.445 -10.445 78.765 -11.125 80.125 C-17.25520788 80.52015277 -20.47473526 77.85378371 -25.125 74.125 C-31.0621434 68.77434032 -36.7836256 63.50386847 -40.125 56.125 C-40.41890625 55.50238281 -40.7128125 54.87976563 -41.015625 54.23828125 C-43.46115247 48.58021997 -44.14779305 43.22448761 -42.64453125 37.19921875 C-38.08342987 26.0164169 -25.89313759 17.8278596 -16.25390625 11.28125 C-12.27292759 8.53780403 -8.61238935 5.58551775 -5.0625 2.3125 C-2.125 0.125 -2.125 0.125 0 0 Z M-11.125 26.125 C-12.29096847 28.14901483 -12.29096847 28.14901483 -13.125 30.125 C-12.58230469 30.71667969 -12.03960937 31.30835938 -11.48046875 31.91796875 C-10.76503906 32.70816406 -10.04960937 33.49835937 -9.3125 34.3125 C-8.60480469 35.08980469 -7.89710938 35.86710938 -7.16796875 36.66796875 C-5.125 39.125 -5.125 39.125 -3.5703125 41.77734375 C-1.45406905 45.21480946 1.11280886 46.77508428 4.875 48.125 C8.1051234 48.06288224 9.94355757 47.83910586 12.515625 45.8671875 C14.77704855 42.96892628 14.40049475 40.18696998 14.296875 36.6328125 C13.49116572 31.84331844 10.60416172 29.61540717 7.0078125 26.515625 C1.83035028 23.13984378 -5.75669697 23.30664091 -11.125 26.125 Z " fill="#000000" transform="translate(205.125,809.875)"/>
<path d="M0 0 C6.04659718 4.40494095 10.25784277 10.10630864 13 17 C13.556875 18.175625 13.556875 18.175625 14.125 19.375 C17.33839382 29.01518147 18.60067023 38.12267959 14.44921875 47.60546875 C10.08269654 54.82023456 1.90603383 58.79273167 -6 61 C-9.625 61.25 -9.625 61.25 -12 61 C-12 61.66 -12 62.32 -12 63 C-12.69867187 63.19335938 -13.39734375 63.38671875 -14.1171875 63.5859375 C-15.48230469 63.97652344 -15.48230469 63.97652344 -16.875 64.375 C-17.77992188 64.63023437 -18.68484375 64.88546875 -19.6171875 65.1484375 C-22.14569726 65.8604315 -22.14569726 65.8604315 -24 68 C-29.2052182 69.87387855 -33.54224529 70.45481289 -39 70 C-40.71484375 68.8984375 -40.71484375 68.8984375 -42 67 C-42.30078125 63.92578125 -42.30078125 63.92578125 -42.3125 60.3125 C-42.60586554 54.2392092 -43.5675323 51.27554443 -47.50390625 46.75390625 C-53.07792443 40.2193523 -53.39938996 30.14820929 -53.20361328 21.90087891 C-52.72246964 17.40905108 -50.39165329 14.74738727 -47 12 C-46.49210938 11.55269531 -45.98421875 11.10539062 -45.4609375 10.64453125 C-41.07113302 7.47651964 -36.21464716 7.28902159 -30.93359375 7.5 C-25.03897356 8.50467561 -21.76949346 11.61783455 -18.28515625 16.30859375 C-13.16764064 24.3289544 -10.85666439 32.76036427 -9 42 C-6.760165 42.95020416 -6.760165 42.95020416 -4 43 C-0.92141984 41.42827019 -0.92141984 41.42827019 1 38 C2.60414323 28.47194238 -0.14827157 21.52921574 -5.125 13.625 C-5.74375 12.75875 -6.3625 11.8925 -7 11 C-9 8 -9 8 -8.8125 4.9375 C-7.4856751 0.14051765 -4.59791348 -0.66375894 0 0 Z M-40 27 C-40.55698164 29.87032982 -40.55698164 29.87032982 -40.375 32.9375 C-40.36210938 33.95714844 -40.34921875 34.97679687 -40.3359375 36.02734375 C-39.78173828 40.93136244 -38.72542121 43.33631677 -35.0625 46.6875 C-30.2700972 50.30625313 -28.06737981 51.5322263 -22 51 C-19.80387499 49.55008844 -19.80387499 49.55008844 -18 48 C-20.63319217 33.90925538 -20.63319217 33.90925538 -29 23 C-34.33302941 22.23813866 -36.70611039 22.72935091 -40 27 Z " fill="#000000" transform="translate(1008,386)"/>
<path d="M0 0 C0.68126953 0.02707031 1.36253906 0.05414063 2.06445312 0.08203125 C11.29725563 0.63191958 17.41354328 5.78439051 23.41796875 12.375 C28.83770336 19.3122603 31.92702747 27.98561388 30.9375 36.75 C30.1732523 39.86197267 29.13394156 42.7798863 27.9375 45.75 C27.70546875 46.39710938 27.4734375 47.04421875 27.234375 47.7109375 C23.6521592 56.31527938 15.51280912 64.099218 7.13720703 68.00439453 C3.12743191 69.36353473 -0.80030555 69.38446977 -5 69.3125 C-5.88445801 69.30371826 -6.76891602 69.29493652 -7.68017578 69.28588867 C-14.21993553 69.08057486 -18.96928136 68.0614688 -24.0625 63.75 C-24.61679688 63.34265625 -25.17109375 62.9353125 -25.7421875 62.515625 C-32.07218753 57.66577423 -37.02037785 51.51226 -39.0625 43.75 C-39.81588624 35.88967025 -40.08069442 28.67792141 -36.0625 21.75 C-35.7221875 21.03585937 -35.381875 20.32171875 -35.03125 19.5859375 C-30.9269218 11.29408525 -23.59018994 4.4953738 -15.0625 0.75 C-9.99156366 -0.26418727 -5.13741369 -0.32261589 0 0 Z M-21.0625 21.625 C-25.33572584 27.52146495 -25.14337593 33.75861998 -24.0625 40.75 C-21.93007842 45.33075747 -19.11597376 47.81123152 -15.0625 50.75 C-14.49789062 51.26691406 -13.93328125 51.78382813 -13.3515625 52.31640625 C-8.26126838 55.50435495 -1.75878071 54.75997885 3.9375 53.75 C9.6565556 50.39548544 13.97074686 46.17205106 15.9375 39.75 C16.90618567 33.49942828 16.18783808 28.73666292 12.49609375 23.5703125 C7.53819796 17.77988785 2.84756667 14.13459672 -4.875 13.375 C-11.70316153 13.61886291 -16.49008723 16.6845862 -21.0625 21.625 Z " fill="#000000" transform="translate(199.0625,254.25)"/>
<path d="M0 0 C0.78938965 0.00757324 1.5787793 0.01514648 2.39208984 0.02294922 C12.4822947 0.30732652 19.51647797 3.96140916 27.125 10.4375 C28.23875 11.365625 28.23875 11.365625 29.375 12.3125 C36.03324906 20.39751672 36.56111884 29.35225172 36.125 39.4375 C35.68827285 43.80477149 34.94260361 47.43877206 33.125 51.4375 C32.465 51.4375 31.805 51.4375 31.125 51.4375 C31.063125 51.994375 31.00125 52.55125 30.9375 53.125 C29.75973177 56.47710959 27.79064604 58.13535114 25.125 60.4375 C22.3125 61.75 22.3125 61.75 20.125 62.4375 C20.125 63.0975 20.125 63.7575 20.125 64.4375 C9.15491891 68.4509443 -4.02037733 69.27005716 -14.8125 64.375 C-23.03576594 60.03181388 -29.39870665 53.35404351 -32.5546875 44.5390625 C-35.01041853 36.02810428 -34.73691211 26.36886746 -30.8515625 18.31640625 C-29.91141353 16.65947704 -28.8999956 15.04332643 -27.875 13.4375 C-27.215 13.4375 -26.555 13.4375 -25.875 13.4375 C-25.875 12.7775 -25.875 12.1175 -25.875 11.4375 C-25.215 11.4375 -24.555 11.4375 -23.875 11.4375 C-23.648125 10.86 -23.42125 10.2825 -23.1875 9.6875 C-18.39964963 1.47975651 -8.71358472 -0.11762499 0 0 Z M-16.62109375 24.8125 C-19.11535369 30.03412829 -18.56708038 35.80561651 -17.875 41.4375 C-16.09535567 46.01275421 -13.94590561 48.72356292 -9.875 51.4375 C-8.885 51.4375 -7.895 51.4375 -6.875 51.4375 C-6.875 52.0975 -6.875 52.7575 -6.875 53.4375 C1.02743566 54.47803423 6.15036893 54.6632934 13.25 50.6875 C17.35311032 47.47637018 19.66322834 44.86095858 20.66015625 39.62890625 C21.28356806 33.88921817 21.67564459 28.74284074 19.125 23.4375 C14.98453804 18.47804557 10.97413766 14.17685049 4.4609375 12.92578125 C-5.66264672 12.32477691 -10.79500181 16.88797226 -16.62109375 24.8125 Z " fill="#000000" transform="translate(643.875,85.5625)"/>
<path d="M0 0 C3.67737295 1.88583228 5.68452625 4.53223484 7.4375 8.25 C7.75 12.1875 7.75 12.1875 7.4375 15.25 C7.994375 15.38535156 8.55125 15.52070313 9.125 15.66015625 C15.6703439 17.50656238 19.64151099 20.52468872 24.4375 25.25 C25.01886719 25.77078125 25.60023438 26.2915625 26.19921875 26.828125 C30.88493288 31.13943583 32.22424081 34.81239789 32.7734375 41.08984375 C32.80243757 42.45548335 32.8150724 43.82155494 32.8125 45.1875 C32.81378906 45.89390625 32.81507813 46.6003125 32.81640625 47.328125 C32.70497649 52.78818337 31.8182398 56.02407525 28.4375 60.25 C27.7775 60.25 27.1175 60.25 26.4375 60.25 C26.4375 60.91 26.4375 61.57 26.4375 62.25 C25.7775 62.25 25.1175 62.25 24.4375 62.25 C24.210625 62.806875 23.98375 63.36375 23.75 63.9375 C22.06199964 66.91159588 19.97073483 68.97008865 17.4375 71.25 C16.7775 71.25 16.1175 71.25 15.4375 71.25 C15.4375 71.91 15.4375 72.57 15.4375 73.25 C14.7775 73.25 14.1175 73.25 13.4375 73.25 C13.4375 73.91 13.4375 74.57 13.4375 75.25 C12.7775 75.25 12.1175 75.25 11.4375 75.25 C11.4375 75.91 11.4375 76.57 11.4375 77.25 C9.61577997 79.08591526 7.64322074 80.6949239 5.6640625 82.359375 C4.24994697 83.56013275 2.86498981 84.79680565 1.5234375 86.078125 C-2.80371286 90.15746498 -2.80371286 90.15746498 -6.125 90.5625 C-9.74190782 88.61493425 -12.64442191 85.9130965 -14.5625 82.25 C-14.61301852 78.46111092 -13.47818278 77.15046958 -11.0078125 74.234375 C-9.91251292 73.14459794 -8.8050145 72.06698479 -7.6875 71 C-7.10685791 70.43152344 -6.52621582 69.86304688 -5.92797852 69.27734375 C-1.47098359 64.97160843 3.18611527 61.03151727 8.09765625 57.25 C12.00086432 53.91370195 15.12248638 50.27096109 16.4375 45.25 C16.11374329 39.20654141 14.46805908 35.5425667 10.5 31.0625 C6.33569091 27.40295565 2.66857516 26.64844043 -2.78979492 26.83837891 C-11.18159965 28.08418174 -17.67920332 36.03554797 -23.25 41.875 C-32.71748941 51.74085288 -32.71748941 51.74085288 -37.5625 54.25 C-40.2816282 54.19131378 -41.21217293 53.54890291 -43.265625 51.796875 C-43.77609375 51.20390625 -44.2865625 50.6109375 -44.8125 50 C-45.33328125 49.41734375 -45.8540625 48.8346875 -46.390625 48.234375 C-47.9060074 45.66832747 -48.01821102 44.18422094 -47.5625 41.25 C-46.1640625 39.58203125 -46.1640625 39.58203125 -44.1875 38.0625 C-40.74942707 35.28045512 -37.64283059 32.36319687 -34.5625 29.1875 C-31.01038082 25.58081678 -27.40582029 22.53618332 -23.29296875 19.60546875 C-20.62927512 17.51900895 -18.69592045 14.86344005 -16.5625 12.25 C-14.60662846 10.4125424 -12.59759337 8.66436922 -10.546875 6.93359375 C-9.29950041 5.87528972 -8.07604991 4.78741779 -6.890625 3.66015625 C-4.61790827 1.54559249 -3.13781063 0.30612787 0 0 Z " fill="#000000" transform="translate(895.5625,211.75)"/>
<path d="M0 0 C0.99352228 4.96761138 1.283856 7.78621013 -0.8125 12.4375 C-1.772117 14.66242915 -1.772117 14.66242915 -2 17 C-0.83133492 19.59512393 0.58616212 21.5637979 2.38671875 23.76171875 C7.57733939 30.96323359 7.20274559 41.50897513 6 50 C3.53877827 56.39588389 -1.06541526 60.63924916 -6.875 64.125 C-13.75201634 66.95671261 -20.92556038 67.83588275 -28.23632812 68.85546875 C-29.04908203 68.97535156 -29.86183594 69.09523438 -30.69921875 69.21875 C-31.42971436 69.32123047 -32.16020996 69.42371094 -32.9128418 69.52929688 C-35.18032368 70.04066722 -36.93093157 70.95848617 -39 72 C-41.55291413 72.3718922 -43.99847943 72.64189497 -46.5625 72.8125 C-47.57086914 72.90821289 -47.57086914 72.90821289 -48.59960938 73.00585938 C-51.39009643 73.20260672 -53.46369186 73.29389686 -55.953125 71.9296875 C-57.52447992 69.03323478 -57.28444214 66.57621862 -57.1875 63.3125 C-57.16042969 62.13300781 -57.13335938 60.95351563 -57.10546875 59.73828125 C-57.07066406 58.83464844 -57.03585937 57.93101562 -57 57 C-55.90945313 56.94392578 -55.90945313 56.94392578 -54.796875 56.88671875 C-48.24234959 56.45815363 -42.2744237 55.41046613 -35.9453125 53.68359375 C-33.02470781 53.00573457 -30.30147235 52.73317948 -27.3125 52.5625 C-22.568626 52.24624173 -18.99852801 50.98478548 -14.77734375 48.83984375 C-13 48 -13 48 -11 48 C-8.38763891 41.39226312 -8.61061229 34.92912591 -10 28 C-11.9664507 24.0524236 -14.90113179 21.58251955 -19 20 C-22.21070553 19.72105954 -22.21070553 19.72105954 -25.625 19.8125 C-27.34589844 19.82216797 -27.34589844 19.82216797 -29.1015625 19.83203125 C-31.9392553 19.80516183 -31.9392553 19.80516183 -34 21 C-36.85207778 21.31255647 -39.70496854 21.51037482 -42.56640625 21.71875 C-44.94543305 21.73834922 -44.94543305 21.73834922 -46 23 C-48.61473629 23.345677 -51.18638647 23.60801697 -53.8125 23.8125 C-54.53759766 23.88919922 -55.26269531 23.96589844 -56.00976562 24.04492188 C-59.52827441 24.31210964 -61.53248496 24.32049773 -64.484375 22.296875 C-66.17131868 19.74037272 -66.51445274 18.4694381 -66.4375 15.4375 C-66.43621094 14.67308594 -66.43492187 13.90867187 -66.43359375 13.12109375 C-65.88938566 10.45888662 -65.19902112 9.5784085 -63 8 C-60.80859375 7.5234375 -60.80859375 7.5234375 -58.4375 7.375 C-55.09224742 7.17127819 -55.09224742 7.17127819 -52 6 C-50.23178978 5.84217628 -48.45999915 5.7236026 -46.6875 5.625 C-40.98637899 5.20218959 -35.70271966 4.0595471 -30.1640625 2.69140625 C-26.31923694 1.85124067 -22.55229142 1.52244198 -18.6328125 1.25390625 C-15.91319753 0.99162884 -13.35135137 0.47536053 -10.6875 -0.125 C-6.83892534 -0.95977855 -3.86940417 -1.01826425 0 0 Z " fill="#000000" transform="translate(1038,460)"/>
<path d="M0 0 C3.60210939 2.29856231 5.0233039 4.52848619 6.8125 8.375 C8.97828576 12.91545441 11.25476824 17.34644757 13.6875 21.75 C15.56509346 25.20115647 17.32276418 28.54193868 18.625 32.25 C20.60751396 37.65685625 23.48161089 42.46383508 26.43359375 47.39453125 C26.88863281 48.17183594 27.34367188 48.94914063 27.8125 49.75 C28.23144531 50.44609375 28.65039062 51.1421875 29.08203125 51.859375 C30.17690337 54.41252361 30.25272127 56.24763564 30 59 C27.58164398 62.26478062 24.52989849 63.764631 20.5625 64.375 C17.15228046 63.87594348 15.50372861 62.2891233 13 60 C12.896875 60.556875 12.79375 61.11375 12.6875 61.6875 C11.13793807 66.89966287 8.42719144 69.95630589 4 73 C3.27167969 73.52207031 2.54335938 74.04414062 1.79296875 74.58203125 C-6.25483884 79.73407599 -13.73633989 80.44744689 -23 79 C-26.59761725 77.53097296 -29.17340343 75.63896382 -32 73 C-32.57105469 72.52046875 -33.14210938 72.0409375 -33.73046875 71.546875 C-39.30587731 66.53589052 -41.67117956 60.04546409 -44.1484375 53.14453125 C-45.48310976 49.78336119 -47.15270477 46.60272819 -48.81640625 43.39453125 C-50.64582694 39.69342602 -52.10376595 36.03305323 -53 32 C-53.66 32 -54.32 32 -55 32 C-54.76793596 28.75110346 -53.93662944 27.94435756 -51.4375 25.75 C-47.15178806 23.56818301 -44.73731534 23.6732886 -40 24 C-37.97358914 27.91306924 -36.04704679 31.70252738 -34.625 35.875 C-33.10049567 40.13858628 -30.79795128 43.7853868 -28.40625 47.61328125 C-27.20519677 49.65173548 -26.31880651 51.54214673 -25.5 53.75 C-23.21335093 58.70440632 -20.35366558 62.11083745 -15.1875 64.0625 C-9.07958632 63.94273699 -3.94330515 62.28308982 0.5 58 C4.49432474 53.20681031 4.51574763 48.98840308 4 43 C2.63548564 36.58215702 -0.47181968 30.8648758 -3.44140625 25.06640625 C-4.9551222 22.08829342 -6.40559954 19.09243345 -7.8125 16.0625 C-8.21082031 15.20785156 -8.60914063 14.35320313 -9.01953125 13.47265625 C-10.00584993 10.98524699 -10.5616891 8.63457844 -11 6 C-7.58983503 3.13546142 -4.09305456 1.65296434 0 0 Z " fill="#000000" transform="translate(774,936)"/>
<path d="M0 0 C1.1953125 1.81640625 1.1953125 1.81640625 2.375 4 C3.74535444 6.32248536 3.74535444 6.32248536 6 8 C9.53017275 8.50958561 12.83820666 8.61779185 16.39135742 8.63769531 C23.67413273 8.77295472 28.888426 11.02601945 35 15 C35.63550781 15.39316406 36.27101563 15.78632812 36.92578125 16.19140625 C41.43008908 19.39918875 43.64410545 23.77559273 45 29 C45.80099376 36.4339421 45.41844932 42.28097892 42 49 C41.18777432 51.22175822 40.3986352 53.45201153 39.625 55.6875 C37.31353176 62.23201851 34.74027262 68.62486404 32 75 C31.67644531 75.75925781 31.35289062 76.51851563 31.01953125 77.30078125 C30.35020154 78.86883535 29.67589678 80.43476536 29 82 C23.94744036 81.36843005 19.70406799 79.86540627 15 78 C15.50573967 72.94260334 16.71029704 69.49134042 19 65 C19.80520673 62.50136881 20.5224351 59.9842708 21.24609375 57.4609375 C22.49979948 53.36853021 24.29092758 49.56205253 26.05859375 45.66796875 C27.76261299 40.83873581 27.77246821 36.03436176 27 31 C24.70458658 26.67746823 21.54011615 23.81938478 17 22 C11.45479564 21.10450116 6.40929858 21.15631824 1.625 24.3125 C-2.98774882 28.33338899 -4.89174868 33.37799647 -7 39 C-7.42023437 40.0725 -7.84046875 41.145 -8.2734375 42.25 C-9.91896539 46.47850804 -11.52775677 50.71939737 -13.09765625 54.9765625 C-13.43667969 55.87117188 -13.77570312 56.76578125 -14.125 57.6875 C-14.41632812 58.47511719 -14.70765625 59.26273438 -15.0078125 60.07421875 C-16 62 -16 62 -19 64 C-23.33917622 63.63840198 -27.07517314 61.77001996 -31 60 C-29.97632578 54.1991794 -28.07665411 49.12015869 -25.5625 43.8125 C-23.42904183 39.20970395 -22.04300705 34.72835767 -20.8125 29.8203125 C-19.62588131 25.70137646 -17.89886867 21.85704753 -16.1953125 17.9296875 C-15.06681695 15.16376705 -14.18488802 12.4354712 -13.375 9.5625 C-12.35983312 5.9950774 -11.23792327 3.01633136 -9 0 C-5.64737261 -1.6763137 -3.554469 -1.00709955 0 0 Z " fill="#000000" transform="translate(712,101)"/>
<path d="M0 0 C1.77174819 0.08723378 3.54247377 0.19541655 5.3125 0.3125 C6.29863281 0.37050781 7.28476562 0.42851563 8.30078125 0.48828125 C11.27559125 1.05224668 12.21696805 1.60698344 14 4 C14.6875 6.1875 14.6875 6.1875 15 8 C15.845625 7.690625 16.69125 7.38125 17.5625 7.0625 C26.91928598 4.17040252 34.45288433 5.14908894 43.25 9.25 C48.29917839 11.94924631 52.35435873 14.96707751 55.14453125 20.109375 C56.34980378 24.18198539 56.25116844 28.02777732 56.1875 32.25 C56.1865332 33.49136719 56.1865332 33.49136719 56.18554688 34.7578125 C56.14053468 40.85946532 56.14053468 40.85946532 55 42 C54.79300437 43.49496842 54.63320741 44.9966592 54.5 46.5 C54.11111111 50.88888889 54.11111111 50.88888889 53 52 C52.835 53.155 52.67 54.31 52.5 55.5 C52 59 52 59 51 60 C50.6503697 61.5336724 50.34533014 63.07761528 50.0625 64.625 C49.25678498 68.84137333 48.24930384 72.89514451 47 77 C36.44191344 77.55353075 36.44191344 77.55353075 32 74 C32.14049518 72.52031676 32.28754826 71.04125484 32.4375 69.5625 C32.51871094 68.73878906 32.59992188 67.91507813 32.68359375 67.06640625 C33 65 33 65 34 64 C34.12375 62.824375 34.2475 61.64875 34.375 60.4375 C34.79462727 56.64055005 35.86986847 53.54473992 37.3046875 50.02734375 C38.43042425 46.74499895 38.63773991 43.44147082 39 40 C39.33 39.67 39.66 39.34 40 39 C40.12535652 37.39951798 40.17574787 35.79284072 40.1875 34.1875 C40.20167969 33.31480469 40.21585937 32.44210937 40.23046875 31.54296875 C39.85908883 27.44520053 38.6043273 25.54234501 35.5625 22.8125 C29.76942477 19.86514593 23.92779294 19.46767401 17.5625 20.625 C12.89311141 23.13052559 10.48549465 27.45304521 8 32 C7.38722372 34.0635372 6.84579797 36.14951676 6.375 38.25 C5.09148265 43.90851735 5.09148265 43.90851735 4 45 C3.835 46.155 3.67 47.31 3.5 48.5 C3 52 3 52 2 53 C1.71612221 55.22145633 1.55234827 57.44317648 1.37890625 59.67578125 C0.98034823 62.12054437 0.21258013 63.85466592 -1 66 C-5.609284 66.43212038 -10.02099381 65.35402574 -14 63 C-15.31640625 61.15625 -15.31640625 61.15625 -16 59 C-15.609375 56.921875 -15.609375 56.921875 -14.75 54.75 C-13.67685078 51.86473476 -12.70524928 49.05980945 -12 46.0625 C-11.27374145 42.99268443 -10.38809354 40.00791676 -9.4375 37 C-8.10035895 32.65261177 -7.4922756 28.51252631 -7 24 C-6.67 23.67 -6.34 23.34 -6 23 C-5.79395915 21.67218122 -5.6337041 20.33704105 -5.5 19 C-5.11111111 15.11111111 -5.11111111 15.11111111 -4 14 C-3.84230651 12.58659906 -3.72365444 11.16874478 -3.625 9.75 C-3.24214668 5.81476995 -2.3981685 3.23231407 0 0 Z " fill="#000000" transform="translate(425,976)"/>
<path d="M0 0 C10.14648312 3.97036296 15.79047288 10.6791704 21 20 C21.52823364 20.91096436 21.52823364 20.91096436 22.06713867 21.84033203 C23.88913227 26.0584308 23.41193185 30.72159566 23.4375 35.25 C23.47037109 36.26191406 23.50324219 37.27382813 23.53710938 38.31640625 C23.59835947 46.90255616 21.18307672 51.31772237 15.68359375 57.6796875 C14.94238281 58.40414062 14.20117188 59.12859375 13.4375 59.875 C12.69371094 60.61492188 11.94992188 61.35484375 11.18359375 62.1171875 C9.14367499 63.87611566 7.44642683 64.92454108 5 66 C4.40832031 66.35707031 3.81664062 66.71414063 3.20703125 67.08203125 C0.05091155 68.3947536 -2.91003618 68.47890674 -6.3125 68.6875 C-7.58738281 68.77386719 -8.86226562 68.86023438 -10.17578125 68.94921875 C-19.3031532 69.07041981 -24.90969192 66.59706205 -32 61 C-34.68042473 58.19616713 -36.88560575 55.24669281 -39 52 C-39.40992187 51.37867188 -39.81984375 50.75734375 -40.2421875 50.1171875 C-44.7376072 42.7998255 -45.83099756 35.43041007 -45 27 C-44.22411439 24.14761128 -43.22498165 21.7051678 -42 19 C-38.0517885 18.52997482 -36.1688076 18.90934407 -32.625 20.8125 C-30.53033671 22.72218004 -30.04110752 23.69334735 -29.66015625 26.53515625 C-29.68741903 29.36659119 -29.83327156 32.17374962 -30 35 C-29.56636509 41.61293241 -27.53674096 45.44457218 -22.87890625 50.13671875 C-19.16883723 52.53794388 -15.97697872 52.68830815 -11.6875 52.625 C-10.55018433 52.61351929 -10.55018433 52.61351929 -9.38989258 52.60180664 C-4.0743711 52.39037758 -0.38886488 51.56466157 3.55078125 47.7578125 C4.26814453 46.88769531 4.26814453 46.88769531 5 46 C5.67095703 45.22269531 5.67095703 45.22269531 6.35546875 44.4296875 C9.3195515 40.24152962 9.70384803 35.82667953 9.5234375 30.7890625 C8.48181478 25.23892352 5.26937846 20.90292241 0.9921875 17.31640625 C-1.52630148 15.65222824 -4.14075521 14.93236243 -7 14 C-9.41486943 11.58513057 -9.2961925 10.87292211 -9.3125 7.5625 C-9.32925781 6.78003906 -9.34601563 5.99757813 -9.36328125 5.19140625 C-8.47188984 -0.18569677 -4.81587191 -0.56657317 0 0 Z " fill="#000000" transform="translate(165,755)"/>
<path d="M0 0 C6.61126994 5.21577734 12.41784528 11.8799475 15 20 C15.28621198 22.98347657 15.27933953 25.9424234 15.25 28.9375 C15.26160156 30.11602539 15.26160156 30.11602539 15.2734375 31.31835938 C15.25797772 35.93696757 14.75728008 39.65561314 13 44 C12.34 44 11.68 44 11 44 C10.84337891 44.84304688 10.84337891 44.84304688 10.68359375 45.703125 C9.87386765 48.42380471 8.63796662 50.39257807 7.0625 52.75 C6.53785156 53.54921875 6.01320313 54.3484375 5.47265625 55.171875 C4.98667969 55.77515625 4.50070312 56.3784375 4 57 C3.34 57 2.68 57 2 57 C2 57.66 2 58.32 2 59 C-4.28282685 62.84662868 -10.40507647 65.86305949 -18 65 C-19.875 63.9375 -19.875 63.9375 -21 62 C-21.65341537 57.58944623 -21.51318284 55.7093998 -18.875 52.0625 C-15.56851204 49.69045429 -13.9760803 49.53766508 -10 50 C-10 49.34 -10 48.68 -10 48 C-8.68 48 -7.36 48 -6 48 C-6 47.34 -6 46.68 -6 46 C-5.01 45.34 -4.02 44.68 -3 44 C-2.27617533 41.94074861 -2.27617533 41.94074861 -2 40 C-1.34 40 -0.68 40 0 40 C0.78921878 28.96824065 0.78921878 28.96824065 -3.25 19.3125 C-4.1575 18.549375 -5.065 17.78625 -6 17 C-6.825 16.278125 -7.65 15.55625 -8.5 14.8125 C-13.05138064 11.51274903 -17.07106717 10.42976896 -22.65625 10.55078125 C-28.82195663 11.73254169 -33.58490184 17.00870268 -37 22 C-39.14547332 25.45108164 -39.18609799 28.10064948 -39.0625 32.125 C-38.90277778 37.80555556 -38.90277778 37.80555556 -40 40 C-43.72141442 41.91387028 -46.83633795 42.46262912 -51 42 C-54.50277661 36.74583509 -54.37807512 31.0480547 -53.3125 24.9375 C-50.84538492 14.4360299 -45.14653 6.33044415 -35.9375 0.625 C-24.71396955 -5.88719433 -11.54519482 -6.04671517 0 0 Z " fill="#000000" transform="translate(949,806)"/>
<path d="M0 0 C3.9331527 1.75674314 7.33280412 4.24497003 10.8125 6.75 C11.44196533 7.20173584 12.07143066 7.65347168 12.7199707 8.11889648 C16.35610505 10.75010464 19.86895028 13.44292646 23.22265625 16.4296875 C25.64575143 18.57053203 28.13218319 20.62836048 30.625 22.6875 C31.52476563 23.43386719 32.42453125 24.18023437 33.3515625 24.94921875 C35.94906043 27.05446229 35.94906043 27.05446229 38.8359375 28.64453125 C39.90714844 29.31548828 39.90714844 29.31548828 41 30 C41 30.66 41 31.32 41 32 C41.66 32 42.32 32 43 32 C43 32.66 43 33.32 43 34 C43.66 34.185625 44.32 34.37125 45 34.5625 C49.33744957 36.64086125 52.85005032 39.35429553 56 43 C56.84502376 47.22511878 55.86184969 50.17830854 54 54 C53.649375 54.9075 53.29875 55.815 52.9375 56.75 C50.62243478 59.43846283 49.85437343 59.39955144 46.4375 59.75 C45.65246094 59.78609375 44.86742187 59.8221875 44.05859375 59.859375 C41.93578072 59.87160278 41.93578072 59.87160278 40 61 C38.04486845 61.18384073 36.08537518 61.32232208 34.125 61.4375 C28.58171528 61.82338612 23.20504507 62.54984293 17.73828125 63.52734375 C15.28553152 63.95071425 12.84740079 64.2818491 10.375 64.5625 C7.13773912 64.79424685 7.13773912 64.79424685 5 66 C3.1699456 66.18242631 1.33546882 66.32160055 -0.5 66.4375 C-6.12339189 66.85857524 -11.50665121 67.74819707 -17 69 C-17.5625 67.0625 -17.5625 67.0625 -18 65 C-17.505 64.505 -17.505 64.505 -17 64 C-16.77471076 62.00458104 -16.55238905 60.00840136 -16.37890625 58.0078125 C-16 56 -16 56 -14 53 C-8.00338035 50.96341219 -2.05747966 50.60419548 4.2421875 50.24609375 C6.95845901 50.17324765 6.95845901 50.17324765 9 49 C11.81943216 48.68672976 14.63978082 48.48970036 17.46875 48.28125 C19.99074004 48.14867388 19.99074004 48.14867388 22 47 C24.0374763 46.77141886 26.08040303 46.58975722 28.125 46.4375 C29.22070312 46.35371094 30.31640625 46.26992188 31.4453125 46.18359375 C32.28835937 46.12300781 33.13140625 46.06242187 34 46 C34 45.01 34 44.02 34 43 C32.22671235 41.60272683 32.22671235 41.60272683 30 40.4375 C27.75 39.18359375 27.75 39.18359375 26 38 C26 37.34 26 36.68 26 36 C25.34 36 24.68 36 24 36 C24 35.34 24 34.68 24 34 C23.33871094 33.79761719 22.67742187 33.59523438 21.99609375 33.38671875 C17.83409524 31.46037003 14.58813901 28.71615998 11.0625 25.8125 C10.37220703 25.26013672 9.68191406 24.70777344 8.97070312 24.13867188 C-2.48810561 14.78698058 -2.48810561 14.78698058 -3.5625 8.9375 C-2.91559156 5.55920034 -1.7012017 2.97710297 0 0 Z " fill="#000000" transform="translate(92,409)"/>
<path d="M0 0 C3.38891322 0.68886787 6.18011613 1.98716486 9.25 3.5625 C10.14203125 4.01753906 11.0340625 4.47257812 11.953125 4.94140625 C12.96632813 5.46541016 12.96632813 5.46541016 14 6 C13.58574279 11.38534368 12.72855671 13.27144329 9 17 C8.94357064 19.5476956 8.94357064 19.5476956 10 22 C12.23083267 23.29148922 12.23083267 23.29148922 14.9375 24 C19.64491586 25.40883813 19.64491586 25.40883813 21.43359375 28.38671875 C22 31 22 31 21.3203125 33.01953125 C20.21354167 34.6796875 19.10677083 36.33984375 18 38 C11.89161053 38.61083895 11.89161053 38.61083895 9.375 36.88671875 C8.88 36.42910156 8.385 35.97148437 7.875 35.5 C5.26755987 32.75234555 5.26755987 32.75234555 2.125 32.6875 C1.073125 32.8421875 1.073125 32.8421875 0 33 C-0.5259375 34.3921875 -0.5259375 34.3921875 -1.0625 35.8125 C-2.51934687 39.23022133 -4.36114191 42.25549433 -6.375 45.375 C-6.98214844 46.31859375 -7.58929687 47.2621875 -8.21484375 48.234375 C-9.32655325 49.95667331 -10.44292366 51.67598325 -11.56640625 53.390625 C-14.92571446 58.86505319 -15.50890796 62.58775973 -15 69 C-12.08357845 70.23726975 -9.42277927 71.12718423 -6.3125 71.8125 C-3 73 -3 73 -1.3125 75.25 C-0.85932721 79.23792052 -2.57073753 80.94607003 -5 84 C-6 85 -6 85 -9 85.375 C-16.2380719 85.21251267 -21.8576488 80.41076593 -27 75.75 C-30.53683901 72.02798617 -32.16237028 69.34249593 -32.20703125 64.1796875 C-31.25806156 54.18864811 -26.47280749 46.20921123 -21 38 C-19.63886239 35.37810366 -18.3351806 32.73447623 -17.05078125 30.07421875 C-16 28 -16 28 -15 27 C-14.49940084 24.58517587 -14.49940084 24.58517587 -15 22 C-16.2375 21.319375 -16.2375 21.319375 -17.5 20.625 C-18.325 20.08875 -19.15 19.5525 -20 19 C-20.54886514 14.60907888 -20.47666082 12.71499122 -18 9 C-14.9375 8.75 -14.9375 8.75 -12 9 C-11.67 9.33 -11.34 9.66 -11 10 C-8.62875402 10.58488562 -8.62875402 10.58488562 -6 10 C-3.52483073 6.88835863 -1.66366879 3.60461572 0 0 Z " fill="#000000" transform="translate(792,122)"/>
<path d="M0 0 C1.9453125 -0.29296875 1.9453125 -0.29296875 4.125 -0.1875 C5.40375 -0.125625 6.6825 -0.06375 8 0 C8 0.66 8 1.32 8 2 C8.88171875 2.16628906 8.88171875 2.16628906 9.78125 2.3359375 C14.82077476 3.84424597 18.25564234 8.0647814 21.4375 12.0625 C24.06199157 17.26543943 24.28726715 23.41777513 23 29 C18.03092645 38.15799276 10.17679944 44.9767357 2.6796875 52.02734375 C1.36871094 53.29384766 1.36871094 53.29384766 0.03125 54.5859375 C-0.76732422 55.3392334 -1.56589844 56.0925293 -2.38867188 56.86865234 C-4.23699019 58.83556889 -4.23699019 58.83556889 -3.88085938 61.10400391 C-2.65044999 63.75238509 -0.89713362 65.79687708 1 68 C-0.49097658 71.7952131 -2.75700849 73.61042731 -6 76 C-8.46800047 74.84826645 -10.04783565 73.95216435 -12 72 C-14.28133797 71.24462341 -14.28133797 71.24462341 -17 72 C-18.90520665 73.75142315 -20.58488974 75.58902642 -22.25390625 77.56640625 C-24 79 -24 79 -26.0078125 78.91796875 C-29.64374692 77.2425872 -31.90193139 74.34691897 -34 71 C-34.1875 68.4375 -34.1875 68.4375 -33 66 C-32.113125 65.030625 -31.22625 64.06125 -30.3125 63.0625 C-29.549375 62.051875 -28.78625 61.04125 -28 60 C-28.61326726 56.09042123 -29.8256443 53.41251033 -33 51 C-33.99 50.67 -34.98 50.34 -36 50 C-36.75 47.8125 -36.75 47.8125 -37 45 C-35.22609745 41.99801107 -33.79256519 40.40699294 -30.6875 38.8125 C-26.3954809 39.11194319 -23.86875751 41.95387307 -21 45 C-20.67 45.66 -20.34 46.32 -20 47 C-17.16926564 47.50169415 -17.16926564 47.50169415 -14 47 C-11.90356987 44.27310553 -11.90356987 44.27310553 -10 41 C-8.4921875 39.59375 -8.4921875 39.59375 -6.875 38.3125 C-3.8728563 36.13502289 -3.8728563 36.13502289 -2 33 C-1.34 33 -0.68 33 0 33 C0.226875 32.443125 0.45375 31.88625 0.6875 31.3125 C2 29 2 29 4.625 26.6875 C7.25233849 24.14059561 7.25233849 24.14059561 7.8125 20.5625 C6.73988917 15.85951406 4.72445465 15.15674271 0.85546875 12.609375 C-1.343354 10.70218558 -1.72483037 9.66046048 -2.125 6.8125 C-2 3 -2 3 0 0 Z " fill="#000000" transform="translate(239,861)"/>
<path d="M0 0 C4.66949732 1.33414209 7.99098885 3.30162711 12 6 C15.29886195 7.73858941 18.6413316 9.38040496 22 11 C22 11.66 22 12.32 22 13 C22.58628174 13.12673096 23.17256348 13.25346191 23.77661133 13.3840332 C25.95098018 13.98641957 27.61503726 14.75151304 29.57421875 15.85546875 C30.23728027 16.22760498 30.9003418 16.59974121 31.58349609 16.9831543 C32.27781738 17.38058838 32.97213867 17.77802246 33.6875 18.1875 C34.40502441 18.59460205 35.12254883 19.0017041 35.86181641 19.42114258 C40.33628726 21.9823949 44.6749608 24.67182414 48.921875 27.59765625 C53.96357911 30.99985884 59.25500937 34.03368884 64.5625 37 C65.696875 37.66 66.83125 38.32 68 39 C68.80179687 39.45117188 69.60359375 39.90234375 70.4296875 40.3671875 C76.75237182 44.16867683 76.75237182 44.16867683 77.875 47.9375 C76.72076944 51.97730695 74.65764381 54.79184426 72 58 C66.83671583 57.68388056 64.17742641 56.70350852 60 53.44921875 C57.68168422 51.7693454 55.27954455 50.46522744 52.75 49.125 C47.90720402 46.54129216 43.30068663 43.70325281 38.69140625 40.7265625 C32.4029732 36.69247337 25.96147827 32.94948184 19.41796875 29.34765625 C-0.07095662 18.48549267 -0.07095662 18.48549267 -7 13 C-6.21362363 8.08514772 -3.48141758 3.48141758 0 0 Z " fill="#000000" transform="translate(117,299)"/>
<path d="M0 0 C4.04878499 0.29991 9.19206404 3.19206404 12 6 C12.62028943 11.36510081 10.81516686 14.87001942 8.1875 19.375 C7.43914651 20.7128576 6.6942978 22.05268224 5.953125 23.39453125 C5.60443359 24.02568848 5.25574219 24.6568457 4.89648438 25.30712891 C3.60496389 27.74596416 2.71449577 30.24050607 1.8359375 32.84765625 C-0.32336678 38.40736027 -3.28959179 43.6913384 -6 49 C-7.01549306 51.02419353 -8.02584793 53.05084477 -9.03515625 55.078125 C-9.7640974 56.53010495 -10.50278411 57.97719796 -11.24609375 59.421875 C-13.2420479 63.33086533 -15.1382271 67.17911566 -16.625 71.3125 C-17.82741307 74.53715324 -19.19570041 77.09743109 -21 80 C-21.350625 80.886875 -21.70125 81.77375 -22.0625 82.6875 C-23 85 -23 85 -25 87 C-29.58531253 87.94403493 -32.6299346 85.75767318 -36.42578125 83.484375 C-36.94527344 82.99453125 -37.46476562 82.5046875 -38 82 C-38 77.3209266 -36.43172905 74.45715029 -34.3125 70.4375 C-33.57004744 68.99429472 -32.82916365 67.55028132 -32.08984375 66.10546875 C-31.72874512 65.40212402 -31.36764648 64.6987793 -30.99560547 63.97412109 C-29.28661972 60.58548481 -27.76163134 57.11861433 -26.21875 53.65234375 C-24.84592499 50.66468931 -23.36728255 47.74220178 -21.875 44.8125 C-19.58268793 40.27489765 -17.68204661 35.79383283 -16 31 C-14.23376623 26.11688312 -14.23376623 26.11688312 -12 25 C-11.66441108 23.66723259 -11.33178212 22.33372018 -11 21 C-9.88812088 18.66198851 -8.75136362 16.36032398 -7.5625 14.0625 C-5.06097843 9.20296153 -5.06097843 9.20296153 -2.90234375 4.18359375 C-2 2 -2 2 0 0 Z " fill="#000000" transform="translate(368,951)"/>
<path d="M0 0 C7.74281941 2.78114761 7.74281941 2.78114761 10.87890625 5.64453125 C10.20706058 9.66067539 8.98833878 13.23197916 7.50390625 17.01953125 C6.83101563 18.74042969 6.83101563 18.74042969 6.14453125 20.49609375 C5.21288836 22.8136992 4.26209209 25.11002503 3.25390625 27.39453125 C2.1689435 29.95898865 1.28138579 32.43632028 0.44140625 35.08203125 C-0.71181901 38.6368184 -2.2047503 41.81969603 -3.9453125 45.1328125 C-5.9047843 49.3186609 -7.43711317 53.66848591 -9.01489258 58.01000977 C-10.2253671 61.32711784 -11.50839454 64.50514345 -13.12109375 67.64453125 C-14.07085239 70.81039339 -14.94355886 73.98987133 -15.80859375 77.1796875 C-16.05609375 78.05496094 -16.30359375 78.93023438 -16.55859375 79.83203125 C-16.89697266 81.05986328 -16.89697266 81.05986328 -17.2421875 82.3125 C-18.21006878 84.88061165 -19.25464036 86.63275788 -21.12109375 88.64453125 C-27.08421393 89.56193436 -30.2902795 87.79934872 -35.12109375 84.64453125 C-34.46837819 81.12747167 -33.60716351 77.75128048 -32.55859375 74.33203125 C-32.15447266 73.00751953 -32.15447266 73.00751953 -31.7421875 71.65625 C-31.53722656 70.99238281 -31.33226562 70.32851562 -31.12109375 69.64453125 C-30.46109375 69.64453125 -29.80109375 69.64453125 -29.12109375 69.64453125 C-28.96640625 68.68546875 -28.96640625 68.68546875 -28.80859375 67.70703125 C-26.3273899 56.65439592 -21.61735578 46.00548288 -17.12109375 35.64453125 C-14.92854855 30.52267466 -13.0111039 25.48342939 -11.62109375 20.08203125 C-10.48599336 15.67883964 -8.96166185 11.70927518 -6.98828125 7.6171875 C-6.04647785 5.66520674 -6.04647785 5.66520674 -5.69140625 3.515625 C-4.77237334 0.5004417 -3.07307071 -0.51500817 0 0 Z " fill="#000000" transform="translate(400.12109375,964.35546875)"/>
<path d="M0 0 C1.93559313 -0.13504138 3.873872 -0.23201129 5.8125 -0.3125 C6.89144531 -0.37050781 7.97039063 -0.42851563 9.08203125 -0.48828125 C12 0 12 0 13.88671875 2.51953125 C14.25410156 3.33808594 14.62148438 4.15664062 15 5 C17.13391026 4.54273352 18.89360563 4.05870034 20.8125 3 C23.79236815 1.63777456 26.76887858 1.42675189 30 1 C30.33 0.67 30.66 0.34 31 0 C32.99958364 -0.04080783 35.00045254 -0.04254356 37 0 C38.45444715 2.9088943 37.92625656 5.27856826 37.6875 8.5 C37.60886719 9.6653125 37.53023437 10.830625 37.44921875 12.03125 C37 15 37 15 35 17 C33.08730904 17.14889211 31.16826375 17.2213692 29.25 17.25 C25.02402661 17.52869129 22.4300028 17.78029573 19.375 20.8125 C15.72992879 25.70456926 14.58367626 29.46089797 13.9375 35.5 C13.85371094 36.23033447 13.76992188 36.96066895 13.68359375 37.71313477 C12.93675652 44.64982313 12.61602714 51.60153751 12.42944336 58.57421875 C12.21239534 64.78760466 12.21239534 64.78760466 10 67 C7.46875 67.01171875 7.46875 67.01171875 4.5 66.6875 C3.5203125 66.58824219 2.540625 66.48898438 1.53125 66.38671875 C-1 66 -1 66 -3 65 C-3.02927916 61.00001563 -3.04689219 57.00005924 -3.0625 53 C-3.07087891 51.87464844 -3.07925781 50.74929687 -3.08789062 49.58984375 C-3.10304544 44.40689747 -3.01284146 39.42522449 -2.25170898 34.28808594 C-1.5320297 27.74605468 -1.61169088 21.10620499 -1.44775391 14.52880859 C-1.39611984 12.51129055 -1.33877547 10.49392116 -1.28125 8.4765625 C-1.25095703 7.28111816 -1.22066406 6.08567383 -1.18945312 4.85400391 C-1 2 -1 2 0 0 Z " fill="#000000" transform="translate(568,78)"/>
<path d="M0 0 C0.6509259 1.24735567 1.29551669 2.49801832 1.9375 3.75 C2.47697266 4.79414062 2.47697266 4.79414062 3.02734375 5.859375 C3.96726736 7.92796189 4.63887854 9.75724567 5 12 C3.8125 13.75 3.8125 13.75 2 15 C0.68 15 -0.64 15 -2 15 C-2 15.66 -2 16.32 -2 17 C-2.66 17 -3.32 17 -4 17 C-4 17.66 -4 18.32 -4 19 C-4.66 19 -5.32 19 -6 19 C-9.2019175 28.98244866 -7.93877144 37.09098974 -3.3359375 46.4296875 C-2.89507812 47.27789062 -2.45421875 48.12609375 -2 49 C-1.26922931 50.43668524 -0.53990092 51.8741057 0.1875 53.3125 C0.5071875 53.93898437 0.826875 54.56546875 1.15625 55.2109375 C2.34411772 57.72965701 3.15945589 60.3490532 4 63 C4.33 63.33 4.66 63.66 5 64 C5.29046725 66.75943884 5.43801081 68.37756358 3.8125 70.6875 C0.75699927 72.90010398 -1.75872265 74 -5.5625 74 C-11.42551816 71.59465922 -13.73203128 63.4111828 -16.0625 57.9375 C-18.13966418 53.09078357 -20.23241486 48.5003341 -23 44 C-23.53917341 42.68202056 -24.04317058 41.34873447 -24.5 40 C-25.3403428 37.65749001 -26.14084702 35.76729622 -27.4375 33.625 C-30.92234026 27.77046836 -34.38015146 20.90075729 -33 14 C-30.375 11.5 -30.375 11.5 -27 10 C-23.875 10.1875 -23.875 10.1875 -21 11 C-20.21625 11.185625 -19.4325 11.37125 -18.625 11.5625 C-18.08875 11.706875 -17.5525 11.85125 -17 12 C-16.67 11.34 -16.34 10.68 -16 10 C-15.34 10 -14.68 10 -14 10 C-14 9.34 -14 8.68 -14 8 C-13.34 8 -12.68 8 -12 8 C-12 7.34 -12 6.68 -12 6 C-11.34 6 -10.68 6 -10 6 C-10 5.34 -10 4.68 -10 4 C-9.34 4 -8.68 4 -8 4 C-8 3.34 -8 2.68 -8 2 C-4.77208445 -0.1519437 -3.71599191 -0.20086443 0 0 Z " fill="#000000" transform="translate(373,114)"/>
<path d="M0 0 C2.3125 1.625 2.3125 1.625 4.3125 4.625 C4.95806875 10.32752396 3.82977071 13.14847365 0.3125 17.625 C-1.32906736 19.26656736 -3.17965801 18.91315992 -5.4375 19 C-9.49787168 18.97676468 -10.40390463 18.8449311 -13.75 16.25 C-16.56463202 12.43662758 -17.23794624 10.3955341 -16.6875 5.625 C-11.76446944 -1.48604414 -7.97313858 -4.0792802 0 0 Z " fill="#000000" transform="translate(446.6875,141.375)"/>
<path d="M0 0 C1.3921875 0.556875 1.3921875 0.556875 2.8125 1.125 C3.740625 1.41375 4.66875 1.7025 5.625 2 C8.81917673 5.10291454 8.93660447 8.0316109 9.1328125 12.3828125 C8.6977 16.10780002 7.59768793 17.83945601 4.69140625 20.15234375 C1.29867932 21.90866185 -1.5177521 22.20262438 -5.1875 21.125 C-8.53014337 19.17040346 -10.59822286 16.88218183 -11.8359375 13.19140625 C-12.22898841 9.71493869 -11.720798 7.82822138 -9.59375 5.0234375 C-6.45723142 1.99549072 -4.43789118 0.17403495 0 0 Z " fill="#000000" transform="translate(597.1875,991.875)"/>
</svg>
